<mxfile host="app.diagrams.net" modified="2023-11-18T21:30:31.342Z" agent="Mozilla/5.0 (X11; Linux x86_64) AppleWebKit/537.36 (KHTML, like Gecko) Chrome/119.0.0.0 Safari/537.36" etag="0mqdiB-A8BxHqkpAkuIV" version="22.1.3" type="github">
  <diagram name="Page-1" id="Jw8H2Ea2w-zf-l-N1MKK">
    <mxGraphModel dx="3187" dy="1862" grid="1" gridSize="10" guides="1" tooltips="1" connect="1" arrows="1" fold="1" page="1" pageScale="1" pageWidth="850" pageHeight="1100" math="0" shadow="0">
      <root>
        <mxCell id="0" />
        <mxCell id="1" parent="0" />
        <mxCell id="nU2St9TEeWDOG-n0TkPk-261" value="" style="whiteSpace=wrap;html=1;aspect=fixed;fillColor=none;" vertex="1" parent="1">
          <mxGeometry x="880" y="270" width="800" height="800" as="geometry" />
        </mxCell>
        <mxCell id="nU2St9TEeWDOG-n0TkPk-1" value="" style="ellipse;whiteSpace=wrap;html=1;aspect=fixed;fillColor=#ffe6cc;strokeColor=#d79b00;" vertex="1" parent="1">
          <mxGeometry x="30" y="270" width="80" height="80" as="geometry" />
        </mxCell>
        <mxCell id="nU2St9TEeWDOG-n0TkPk-2" value="" style="ellipse;whiteSpace=wrap;html=1;aspect=fixed;fillColor=#ffe6cc;strokeColor=#d79b00;" vertex="1" parent="1">
          <mxGeometry x="110" y="270" width="80" height="80" as="geometry" />
        </mxCell>
        <mxCell id="nU2St9TEeWDOG-n0TkPk-3" value="" style="ellipse;whiteSpace=wrap;html=1;aspect=fixed;fillColor=#ffe6cc;strokeColor=#d79b00;" vertex="1" parent="1">
          <mxGeometry x="190" y="270" width="80" height="80" as="geometry" />
        </mxCell>
        <mxCell id="nU2St9TEeWDOG-n0TkPk-4" value="" style="ellipse;whiteSpace=wrap;html=1;aspect=fixed;fillColor=#ffe6cc;strokeColor=#d79b00;" vertex="1" parent="1">
          <mxGeometry x="270" y="270" width="80" height="80" as="geometry" />
        </mxCell>
        <mxCell id="nU2St9TEeWDOG-n0TkPk-5" value="" style="ellipse;whiteSpace=wrap;html=1;aspect=fixed;fillColor=#ffe6cc;strokeColor=#d79b00;" vertex="1" parent="1">
          <mxGeometry x="350" y="270" width="80" height="80" as="geometry" />
        </mxCell>
        <mxCell id="nU2St9TEeWDOG-n0TkPk-6" value="" style="ellipse;whiteSpace=wrap;html=1;aspect=fixed;fillColor=#ffe6cc;strokeColor=#d79b00;" vertex="1" parent="1">
          <mxGeometry x="430" y="270" width="80" height="80" as="geometry" />
        </mxCell>
        <mxCell id="nU2St9TEeWDOG-n0TkPk-7" value="" style="ellipse;whiteSpace=wrap;html=1;aspect=fixed;fillColor=#ffe6cc;strokeColor=#d79b00;" vertex="1" parent="1">
          <mxGeometry x="510" y="270" width="80" height="80" as="geometry" />
        </mxCell>
        <mxCell id="nU2St9TEeWDOG-n0TkPk-8" value="" style="ellipse;whiteSpace=wrap;html=1;aspect=fixed;fillColor=#ffe6cc;strokeColor=#d79b00;" vertex="1" parent="1">
          <mxGeometry x="590" y="270" width="80" height="80" as="geometry" />
        </mxCell>
        <mxCell id="nU2St9TEeWDOG-n0TkPk-9" value="" style="ellipse;whiteSpace=wrap;html=1;aspect=fixed;fillColor=#ffe6cc;strokeColor=#d79b00;" vertex="1" parent="1">
          <mxGeometry x="670" y="270" width="80" height="80" as="geometry" />
        </mxCell>
        <mxCell id="nU2St9TEeWDOG-n0TkPk-10" value="" style="ellipse;whiteSpace=wrap;html=1;aspect=fixed;fillColor=#ffe6cc;strokeColor=#d79b00;" vertex="1" parent="1">
          <mxGeometry x="750" y="270" width="80" height="80" as="geometry" />
        </mxCell>
        <mxCell id="nU2St9TEeWDOG-n0TkPk-70" value="" style="ellipse;whiteSpace=wrap;html=1;aspect=fixed;fillColor=#ffe6cc;strokeColor=#d79b00;" vertex="1" parent="1">
          <mxGeometry x="30" y="350" width="80" height="80" as="geometry" />
        </mxCell>
        <mxCell id="nU2St9TEeWDOG-n0TkPk-71" value="" style="ellipse;whiteSpace=wrap;html=1;aspect=fixed;fillColor=#ffe6cc;strokeColor=#d79b00;" vertex="1" parent="1">
          <mxGeometry x="110" y="350" width="80" height="80" as="geometry" />
        </mxCell>
        <mxCell id="nU2St9TEeWDOG-n0TkPk-72" value="" style="ellipse;whiteSpace=wrap;html=1;aspect=fixed;fillColor=#ffe6cc;strokeColor=#d79b00;" vertex="1" parent="1">
          <mxGeometry x="190" y="350" width="80" height="80" as="geometry" />
        </mxCell>
        <mxCell id="nU2St9TEeWDOG-n0TkPk-73" value="" style="ellipse;whiteSpace=wrap;html=1;aspect=fixed;fillColor=#ffe6cc;strokeColor=#d79b00;" vertex="1" parent="1">
          <mxGeometry x="270" y="350" width="80" height="80" as="geometry" />
        </mxCell>
        <mxCell id="nU2St9TEeWDOG-n0TkPk-74" value="" style="ellipse;whiteSpace=wrap;html=1;aspect=fixed;fillColor=#ffe6cc;strokeColor=#d79b00;" vertex="1" parent="1">
          <mxGeometry x="350" y="350" width="80" height="80" as="geometry" />
        </mxCell>
        <mxCell id="nU2St9TEeWDOG-n0TkPk-75" value="" style="ellipse;whiteSpace=wrap;html=1;aspect=fixed;fillColor=#ffe6cc;strokeColor=#d79b00;" vertex="1" parent="1">
          <mxGeometry x="430" y="350" width="80" height="80" as="geometry" />
        </mxCell>
        <mxCell id="nU2St9TEeWDOG-n0TkPk-76" value="" style="ellipse;whiteSpace=wrap;html=1;aspect=fixed;fillColor=#ffe6cc;strokeColor=#d79b00;" vertex="1" parent="1">
          <mxGeometry x="510" y="350" width="80" height="80" as="geometry" />
        </mxCell>
        <mxCell id="nU2St9TEeWDOG-n0TkPk-77" value="" style="ellipse;whiteSpace=wrap;html=1;aspect=fixed;fillColor=#ffe6cc;strokeColor=#d79b00;" vertex="1" parent="1">
          <mxGeometry x="590" y="350" width="80" height="80" as="geometry" />
        </mxCell>
        <mxCell id="nU2St9TEeWDOG-n0TkPk-78" value="" style="ellipse;whiteSpace=wrap;html=1;aspect=fixed;fillColor=#ffe6cc;strokeColor=#d79b00;" vertex="1" parent="1">
          <mxGeometry x="670" y="350" width="80" height="80" as="geometry" />
        </mxCell>
        <mxCell id="nU2St9TEeWDOG-n0TkPk-79" value="" style="ellipse;whiteSpace=wrap;html=1;aspect=fixed;fillColor=#ffe6cc;strokeColor=#d79b00;" vertex="1" parent="1">
          <mxGeometry x="750" y="350" width="80" height="80" as="geometry" />
        </mxCell>
        <mxCell id="nU2St9TEeWDOG-n0TkPk-80" value="" style="ellipse;whiteSpace=wrap;html=1;aspect=fixed;fillColor=#ffe6cc;strokeColor=#d79b00;" vertex="1" parent="1">
          <mxGeometry x="30" y="430" width="80" height="80" as="geometry" />
        </mxCell>
        <mxCell id="nU2St9TEeWDOG-n0TkPk-81" value="" style="ellipse;whiteSpace=wrap;html=1;aspect=fixed;fillColor=#ffe6cc;strokeColor=#d79b00;" vertex="1" parent="1">
          <mxGeometry x="110" y="430" width="80" height="80" as="geometry" />
        </mxCell>
        <mxCell id="nU2St9TEeWDOG-n0TkPk-82" value="" style="ellipse;whiteSpace=wrap;html=1;aspect=fixed;fillColor=#ffe6cc;strokeColor=#d79b00;" vertex="1" parent="1">
          <mxGeometry x="190" y="430" width="80" height="80" as="geometry" />
        </mxCell>
        <mxCell id="nU2St9TEeWDOG-n0TkPk-83" value="" style="ellipse;whiteSpace=wrap;html=1;aspect=fixed;fillColor=#ffe6cc;strokeColor=#d79b00;" vertex="1" parent="1">
          <mxGeometry x="270" y="430" width="80" height="80" as="geometry" />
        </mxCell>
        <mxCell id="nU2St9TEeWDOG-n0TkPk-84" value="" style="ellipse;whiteSpace=wrap;html=1;aspect=fixed;fillColor=#ffe6cc;strokeColor=#d79b00;" vertex="1" parent="1">
          <mxGeometry x="350" y="430" width="80" height="80" as="geometry" />
        </mxCell>
        <mxCell id="nU2St9TEeWDOG-n0TkPk-85" value="" style="ellipse;whiteSpace=wrap;html=1;aspect=fixed;fillColor=#ffe6cc;strokeColor=#d79b00;" vertex="1" parent="1">
          <mxGeometry x="430" y="430" width="80" height="80" as="geometry" />
        </mxCell>
        <mxCell id="nU2St9TEeWDOG-n0TkPk-86" value="" style="ellipse;whiteSpace=wrap;html=1;aspect=fixed;fillColor=#ffe6cc;strokeColor=#d79b00;" vertex="1" parent="1">
          <mxGeometry x="510" y="430" width="80" height="80" as="geometry" />
        </mxCell>
        <mxCell id="nU2St9TEeWDOG-n0TkPk-87" value="" style="ellipse;whiteSpace=wrap;html=1;aspect=fixed;fillColor=#ffe6cc;strokeColor=#d79b00;" vertex="1" parent="1">
          <mxGeometry x="590" y="430" width="80" height="80" as="geometry" />
        </mxCell>
        <mxCell id="nU2St9TEeWDOG-n0TkPk-88" value="" style="ellipse;whiteSpace=wrap;html=1;aspect=fixed;fillColor=#ffe6cc;strokeColor=#d79b00;" vertex="1" parent="1">
          <mxGeometry x="670" y="430" width="80" height="80" as="geometry" />
        </mxCell>
        <mxCell id="nU2St9TEeWDOG-n0TkPk-89" value="" style="ellipse;whiteSpace=wrap;html=1;aspect=fixed;fillColor=#ffe6cc;strokeColor=#d79b00;" vertex="1" parent="1">
          <mxGeometry x="750" y="430" width="80" height="80" as="geometry" />
        </mxCell>
        <mxCell id="nU2St9TEeWDOG-n0TkPk-90" value="" style="ellipse;whiteSpace=wrap;html=1;aspect=fixed;fillColor=#ffe6cc;strokeColor=#d79b00;" vertex="1" parent="1">
          <mxGeometry x="30" y="510" width="80" height="80" as="geometry" />
        </mxCell>
        <mxCell id="nU2St9TEeWDOG-n0TkPk-91" value="" style="ellipse;whiteSpace=wrap;html=1;aspect=fixed;fillColor=#ffe6cc;strokeColor=#d79b00;" vertex="1" parent="1">
          <mxGeometry x="110" y="510" width="80" height="80" as="geometry" />
        </mxCell>
        <mxCell id="nU2St9TEeWDOG-n0TkPk-92" value="" style="ellipse;whiteSpace=wrap;html=1;aspect=fixed;fillColor=#ffe6cc;strokeColor=#d79b00;" vertex="1" parent="1">
          <mxGeometry x="190" y="510" width="80" height="80" as="geometry" />
        </mxCell>
        <mxCell id="nU2St9TEeWDOG-n0TkPk-93" value="" style="ellipse;whiteSpace=wrap;html=1;aspect=fixed;fillColor=#ffe6cc;strokeColor=#d79b00;" vertex="1" parent="1">
          <mxGeometry x="270" y="510" width="80" height="80" as="geometry" />
        </mxCell>
        <mxCell id="nU2St9TEeWDOG-n0TkPk-94" value="" style="ellipse;whiteSpace=wrap;html=1;aspect=fixed;fillColor=#ffe6cc;strokeColor=#d79b00;" vertex="1" parent="1">
          <mxGeometry x="350" y="510" width="80" height="80" as="geometry" />
        </mxCell>
        <mxCell id="nU2St9TEeWDOG-n0TkPk-95" value="" style="ellipse;whiteSpace=wrap;html=1;aspect=fixed;fillColor=#ffe6cc;strokeColor=#d79b00;" vertex="1" parent="1">
          <mxGeometry x="430" y="510" width="80" height="80" as="geometry" />
        </mxCell>
        <mxCell id="nU2St9TEeWDOG-n0TkPk-96" value="" style="ellipse;whiteSpace=wrap;html=1;aspect=fixed;fillColor=#ffe6cc;strokeColor=#d79b00;" vertex="1" parent="1">
          <mxGeometry x="510" y="510" width="80" height="80" as="geometry" />
        </mxCell>
        <mxCell id="nU2St9TEeWDOG-n0TkPk-97" value="" style="ellipse;whiteSpace=wrap;html=1;aspect=fixed;fillColor=#ffe6cc;strokeColor=#d79b00;" vertex="1" parent="1">
          <mxGeometry x="590" y="510" width="80" height="80" as="geometry" />
        </mxCell>
        <mxCell id="nU2St9TEeWDOG-n0TkPk-98" value="" style="ellipse;whiteSpace=wrap;html=1;aspect=fixed;fillColor=#ffe6cc;strokeColor=#d79b00;" vertex="1" parent="1">
          <mxGeometry x="670" y="510" width="80" height="80" as="geometry" />
        </mxCell>
        <mxCell id="nU2St9TEeWDOG-n0TkPk-99" value="" style="ellipse;whiteSpace=wrap;html=1;aspect=fixed;fillColor=#ffe6cc;strokeColor=#d79b00;" vertex="1" parent="1">
          <mxGeometry x="750" y="510" width="80" height="80" as="geometry" />
        </mxCell>
        <mxCell id="nU2St9TEeWDOG-n0TkPk-100" value="" style="ellipse;whiteSpace=wrap;html=1;aspect=fixed;fillColor=#ffe6cc;strokeColor=#d79b00;" vertex="1" parent="1">
          <mxGeometry x="30" y="590" width="80" height="80" as="geometry" />
        </mxCell>
        <mxCell id="nU2St9TEeWDOG-n0TkPk-101" value="" style="ellipse;whiteSpace=wrap;html=1;aspect=fixed;fillColor=#ffe6cc;strokeColor=#d79b00;" vertex="1" parent="1">
          <mxGeometry x="110" y="590" width="80" height="80" as="geometry" />
        </mxCell>
        <mxCell id="nU2St9TEeWDOG-n0TkPk-102" value="" style="ellipse;whiteSpace=wrap;html=1;aspect=fixed;fillColor=#ffe6cc;strokeColor=#d79b00;" vertex="1" parent="1">
          <mxGeometry x="190" y="590" width="80" height="80" as="geometry" />
        </mxCell>
        <mxCell id="nU2St9TEeWDOG-n0TkPk-103" value="" style="ellipse;whiteSpace=wrap;html=1;aspect=fixed;fillColor=#ffe6cc;strokeColor=#d79b00;" vertex="1" parent="1">
          <mxGeometry x="270" y="590" width="80" height="80" as="geometry" />
        </mxCell>
        <mxCell id="nU2St9TEeWDOG-n0TkPk-104" value="" style="ellipse;whiteSpace=wrap;html=1;aspect=fixed;fillColor=#ffe6cc;strokeColor=#d79b00;" vertex="1" parent="1">
          <mxGeometry x="350" y="590" width="80" height="80" as="geometry" />
        </mxCell>
        <mxCell id="nU2St9TEeWDOG-n0TkPk-105" value="" style="ellipse;whiteSpace=wrap;html=1;aspect=fixed;fillColor=#ffe6cc;strokeColor=#d79b00;" vertex="1" parent="1">
          <mxGeometry x="430" y="590" width="80" height="80" as="geometry" />
        </mxCell>
        <mxCell id="nU2St9TEeWDOG-n0TkPk-106" value="" style="ellipse;whiteSpace=wrap;html=1;aspect=fixed;fillColor=#ffe6cc;strokeColor=#d79b00;" vertex="1" parent="1">
          <mxGeometry x="510" y="590" width="80" height="80" as="geometry" />
        </mxCell>
        <mxCell id="nU2St9TEeWDOG-n0TkPk-107" value="" style="ellipse;whiteSpace=wrap;html=1;aspect=fixed;fillColor=#ffe6cc;strokeColor=#d79b00;" vertex="1" parent="1">
          <mxGeometry x="590" y="590" width="80" height="80" as="geometry" />
        </mxCell>
        <mxCell id="nU2St9TEeWDOG-n0TkPk-108" value="" style="ellipse;whiteSpace=wrap;html=1;aspect=fixed;fillColor=#ffe6cc;strokeColor=#d79b00;" vertex="1" parent="1">
          <mxGeometry x="670" y="590" width="80" height="80" as="geometry" />
        </mxCell>
        <mxCell id="nU2St9TEeWDOG-n0TkPk-109" value="" style="ellipse;whiteSpace=wrap;html=1;aspect=fixed;fillColor=#ffe6cc;strokeColor=#d79b00;" vertex="1" parent="1">
          <mxGeometry x="750" y="590" width="80" height="80" as="geometry" />
        </mxCell>
        <mxCell id="nU2St9TEeWDOG-n0TkPk-110" value="" style="ellipse;whiteSpace=wrap;html=1;aspect=fixed;fillColor=#ffe6cc;strokeColor=#d79b00;" vertex="1" parent="1">
          <mxGeometry x="30" y="670" width="80" height="80" as="geometry" />
        </mxCell>
        <mxCell id="nU2St9TEeWDOG-n0TkPk-111" value="" style="ellipse;whiteSpace=wrap;html=1;aspect=fixed;fillColor=#ffe6cc;strokeColor=#d79b00;" vertex="1" parent="1">
          <mxGeometry x="110" y="670" width="80" height="80" as="geometry" />
        </mxCell>
        <mxCell id="nU2St9TEeWDOG-n0TkPk-112" value="" style="ellipse;whiteSpace=wrap;html=1;aspect=fixed;fillColor=#ffe6cc;strokeColor=#d79b00;" vertex="1" parent="1">
          <mxGeometry x="190" y="670" width="80" height="80" as="geometry" />
        </mxCell>
        <mxCell id="nU2St9TEeWDOG-n0TkPk-113" value="" style="ellipse;whiteSpace=wrap;html=1;aspect=fixed;fillColor=#ffe6cc;strokeColor=#d79b00;" vertex="1" parent="1">
          <mxGeometry x="270" y="670" width="80" height="80" as="geometry" />
        </mxCell>
        <mxCell id="nU2St9TEeWDOG-n0TkPk-114" value="" style="ellipse;whiteSpace=wrap;html=1;aspect=fixed;fillColor=#ffe6cc;strokeColor=#d79b00;" vertex="1" parent="1">
          <mxGeometry x="350" y="670" width="80" height="80" as="geometry" />
        </mxCell>
        <mxCell id="nU2St9TEeWDOG-n0TkPk-115" value="" style="ellipse;whiteSpace=wrap;html=1;aspect=fixed;fillColor=#ffe6cc;strokeColor=#d79b00;" vertex="1" parent="1">
          <mxGeometry x="430" y="670" width="80" height="80" as="geometry" />
        </mxCell>
        <mxCell id="nU2St9TEeWDOG-n0TkPk-116" value="" style="ellipse;whiteSpace=wrap;html=1;aspect=fixed;fillColor=#ffe6cc;strokeColor=#d79b00;" vertex="1" parent="1">
          <mxGeometry x="510" y="670" width="80" height="80" as="geometry" />
        </mxCell>
        <mxCell id="nU2St9TEeWDOG-n0TkPk-117" value="" style="ellipse;whiteSpace=wrap;html=1;aspect=fixed;fillColor=#ffe6cc;strokeColor=#d79b00;" vertex="1" parent="1">
          <mxGeometry x="590" y="670" width="80" height="80" as="geometry" />
        </mxCell>
        <mxCell id="nU2St9TEeWDOG-n0TkPk-118" value="" style="ellipse;whiteSpace=wrap;html=1;aspect=fixed;fillColor=#ffe6cc;strokeColor=#d79b00;" vertex="1" parent="1">
          <mxGeometry x="670" y="670" width="80" height="80" as="geometry" />
        </mxCell>
        <mxCell id="nU2St9TEeWDOG-n0TkPk-119" value="" style="ellipse;whiteSpace=wrap;html=1;aspect=fixed;fillColor=#ffe6cc;strokeColor=#d79b00;" vertex="1" parent="1">
          <mxGeometry x="750" y="670" width="80" height="80" as="geometry" />
        </mxCell>
        <mxCell id="nU2St9TEeWDOG-n0TkPk-120" value="" style="ellipse;whiteSpace=wrap;html=1;aspect=fixed;fillColor=#ffe6cc;strokeColor=#d79b00;" vertex="1" parent="1">
          <mxGeometry x="30" y="750" width="80" height="80" as="geometry" />
        </mxCell>
        <mxCell id="nU2St9TEeWDOG-n0TkPk-121" value="" style="ellipse;whiteSpace=wrap;html=1;aspect=fixed;fillColor=#ffe6cc;strokeColor=#d79b00;" vertex="1" parent="1">
          <mxGeometry x="110" y="750" width="80" height="80" as="geometry" />
        </mxCell>
        <mxCell id="nU2St9TEeWDOG-n0TkPk-122" value="" style="ellipse;whiteSpace=wrap;html=1;aspect=fixed;fillColor=#ffe6cc;strokeColor=#d79b00;" vertex="1" parent="1">
          <mxGeometry x="190" y="750" width="80" height="80" as="geometry" />
        </mxCell>
        <mxCell id="nU2St9TEeWDOG-n0TkPk-123" value="" style="ellipse;whiteSpace=wrap;html=1;aspect=fixed;fillColor=#ffe6cc;strokeColor=#d79b00;" vertex="1" parent="1">
          <mxGeometry x="270" y="750" width="80" height="80" as="geometry" />
        </mxCell>
        <mxCell id="nU2St9TEeWDOG-n0TkPk-124" value="" style="ellipse;whiteSpace=wrap;html=1;aspect=fixed;fillColor=#ffe6cc;strokeColor=#d79b00;" vertex="1" parent="1">
          <mxGeometry x="350" y="750" width="80" height="80" as="geometry" />
        </mxCell>
        <mxCell id="nU2St9TEeWDOG-n0TkPk-125" value="" style="ellipse;whiteSpace=wrap;html=1;aspect=fixed;fillColor=#ffe6cc;strokeColor=#d79b00;" vertex="1" parent="1">
          <mxGeometry x="430" y="750" width="80" height="80" as="geometry" />
        </mxCell>
        <mxCell id="nU2St9TEeWDOG-n0TkPk-126" value="" style="ellipse;whiteSpace=wrap;html=1;aspect=fixed;fillColor=#ffe6cc;strokeColor=#d79b00;" vertex="1" parent="1">
          <mxGeometry x="510" y="750" width="80" height="80" as="geometry" />
        </mxCell>
        <mxCell id="nU2St9TEeWDOG-n0TkPk-127" value="" style="ellipse;whiteSpace=wrap;html=1;aspect=fixed;fillColor=#ffe6cc;strokeColor=#d79b00;" vertex="1" parent="1">
          <mxGeometry x="590" y="750" width="80" height="80" as="geometry" />
        </mxCell>
        <mxCell id="nU2St9TEeWDOG-n0TkPk-128" value="" style="ellipse;whiteSpace=wrap;html=1;aspect=fixed;fillColor=#ffe6cc;strokeColor=#d79b00;" vertex="1" parent="1">
          <mxGeometry x="670" y="750" width="80" height="80" as="geometry" />
        </mxCell>
        <mxCell id="nU2St9TEeWDOG-n0TkPk-129" value="" style="ellipse;whiteSpace=wrap;html=1;aspect=fixed;fillColor=#ffe6cc;strokeColor=#d79b00;" vertex="1" parent="1">
          <mxGeometry x="750" y="750" width="80" height="80" as="geometry" />
        </mxCell>
        <mxCell id="nU2St9TEeWDOG-n0TkPk-130" value="" style="ellipse;whiteSpace=wrap;html=1;aspect=fixed;fillColor=#ffe6cc;strokeColor=#d79b00;" vertex="1" parent="1">
          <mxGeometry x="30" y="830" width="80" height="80" as="geometry" />
        </mxCell>
        <mxCell id="nU2St9TEeWDOG-n0TkPk-131" value="" style="ellipse;whiteSpace=wrap;html=1;aspect=fixed;fillColor=#ffe6cc;strokeColor=#d79b00;" vertex="1" parent="1">
          <mxGeometry x="110" y="830" width="80" height="80" as="geometry" />
        </mxCell>
        <mxCell id="nU2St9TEeWDOG-n0TkPk-132" value="" style="ellipse;whiteSpace=wrap;html=1;aspect=fixed;fillColor=#ffe6cc;strokeColor=#d79b00;" vertex="1" parent="1">
          <mxGeometry x="190" y="830" width="80" height="80" as="geometry" />
        </mxCell>
        <mxCell id="nU2St9TEeWDOG-n0TkPk-133" value="" style="ellipse;whiteSpace=wrap;html=1;aspect=fixed;fillColor=#ffe6cc;strokeColor=#d79b00;" vertex="1" parent="1">
          <mxGeometry x="270" y="830" width="80" height="80" as="geometry" />
        </mxCell>
        <mxCell id="nU2St9TEeWDOG-n0TkPk-134" value="" style="ellipse;whiteSpace=wrap;html=1;aspect=fixed;fillColor=#ffe6cc;strokeColor=#d79b00;" vertex="1" parent="1">
          <mxGeometry x="350" y="830" width="80" height="80" as="geometry" />
        </mxCell>
        <mxCell id="nU2St9TEeWDOG-n0TkPk-135" value="" style="ellipse;whiteSpace=wrap;html=1;aspect=fixed;fillColor=#ffe6cc;strokeColor=#d79b00;" vertex="1" parent="1">
          <mxGeometry x="430" y="830" width="80" height="80" as="geometry" />
        </mxCell>
        <mxCell id="nU2St9TEeWDOG-n0TkPk-136" value="" style="ellipse;whiteSpace=wrap;html=1;aspect=fixed;fillColor=#ffe6cc;strokeColor=#d79b00;" vertex="1" parent="1">
          <mxGeometry x="510" y="830" width="80" height="80" as="geometry" />
        </mxCell>
        <mxCell id="nU2St9TEeWDOG-n0TkPk-137" value="" style="ellipse;whiteSpace=wrap;html=1;aspect=fixed;fillColor=#ffe6cc;strokeColor=#d79b00;" vertex="1" parent="1">
          <mxGeometry x="590" y="830" width="80" height="80" as="geometry" />
        </mxCell>
        <mxCell id="nU2St9TEeWDOG-n0TkPk-138" value="" style="ellipse;whiteSpace=wrap;html=1;aspect=fixed;fillColor=#ffe6cc;strokeColor=#d79b00;" vertex="1" parent="1">
          <mxGeometry x="670" y="830" width="80" height="80" as="geometry" />
        </mxCell>
        <mxCell id="nU2St9TEeWDOG-n0TkPk-139" value="" style="ellipse;whiteSpace=wrap;html=1;aspect=fixed;fillColor=#ffe6cc;strokeColor=#d79b00;" vertex="1" parent="1">
          <mxGeometry x="750" y="830" width="80" height="80" as="geometry" />
        </mxCell>
        <mxCell id="nU2St9TEeWDOG-n0TkPk-140" value="" style="ellipse;whiteSpace=wrap;html=1;aspect=fixed;fillColor=#ffe6cc;strokeColor=#d79b00;" vertex="1" parent="1">
          <mxGeometry x="30" y="910" width="80" height="80" as="geometry" />
        </mxCell>
        <mxCell id="nU2St9TEeWDOG-n0TkPk-141" value="" style="ellipse;whiteSpace=wrap;html=1;aspect=fixed;fillColor=#ffe6cc;strokeColor=#d79b00;" vertex="1" parent="1">
          <mxGeometry x="110" y="910" width="80" height="80" as="geometry" />
        </mxCell>
        <mxCell id="nU2St9TEeWDOG-n0TkPk-142" value="" style="ellipse;whiteSpace=wrap;html=1;aspect=fixed;fillColor=#ffe6cc;strokeColor=#d79b00;" vertex="1" parent="1">
          <mxGeometry x="190" y="910" width="80" height="80" as="geometry" />
        </mxCell>
        <mxCell id="nU2St9TEeWDOG-n0TkPk-143" value="" style="ellipse;whiteSpace=wrap;html=1;aspect=fixed;fillColor=#ffe6cc;strokeColor=#d79b00;" vertex="1" parent="1">
          <mxGeometry x="270" y="910" width="80" height="80" as="geometry" />
        </mxCell>
        <mxCell id="nU2St9TEeWDOG-n0TkPk-144" value="" style="ellipse;whiteSpace=wrap;html=1;aspect=fixed;fillColor=#ffe6cc;strokeColor=#d79b00;" vertex="1" parent="1">
          <mxGeometry x="350" y="910" width="80" height="80" as="geometry" />
        </mxCell>
        <mxCell id="nU2St9TEeWDOG-n0TkPk-145" value="" style="ellipse;whiteSpace=wrap;html=1;aspect=fixed;fillColor=#ffe6cc;strokeColor=#d79b00;" vertex="1" parent="1">
          <mxGeometry x="430" y="910" width="80" height="80" as="geometry" />
        </mxCell>
        <mxCell id="nU2St9TEeWDOG-n0TkPk-146" value="" style="ellipse;whiteSpace=wrap;html=1;aspect=fixed;fillColor=#ffe6cc;strokeColor=#d79b00;" vertex="1" parent="1">
          <mxGeometry x="510" y="910" width="80" height="80" as="geometry" />
        </mxCell>
        <mxCell id="nU2St9TEeWDOG-n0TkPk-147" value="" style="ellipse;whiteSpace=wrap;html=1;aspect=fixed;fillColor=#ffe6cc;strokeColor=#d79b00;" vertex="1" parent="1">
          <mxGeometry x="590" y="910" width="80" height="80" as="geometry" />
        </mxCell>
        <mxCell id="nU2St9TEeWDOG-n0TkPk-148" value="" style="ellipse;whiteSpace=wrap;html=1;aspect=fixed;fillColor=#ffe6cc;strokeColor=#d79b00;" vertex="1" parent="1">
          <mxGeometry x="670" y="910" width="80" height="80" as="geometry" />
        </mxCell>
        <mxCell id="nU2St9TEeWDOG-n0TkPk-149" value="" style="ellipse;whiteSpace=wrap;html=1;aspect=fixed;fillColor=#ffe6cc;strokeColor=#d79b00;" vertex="1" parent="1">
          <mxGeometry x="750" y="910" width="80" height="80" as="geometry" />
        </mxCell>
        <mxCell id="nU2St9TEeWDOG-n0TkPk-150" value="" style="ellipse;whiteSpace=wrap;html=1;aspect=fixed;fillColor=#ffe6cc;strokeColor=#d79b00;" vertex="1" parent="1">
          <mxGeometry x="30" y="990" width="80" height="80" as="geometry" />
        </mxCell>
        <mxCell id="nU2St9TEeWDOG-n0TkPk-151" value="" style="ellipse;whiteSpace=wrap;html=1;aspect=fixed;fillColor=#ffe6cc;strokeColor=#d79b00;" vertex="1" parent="1">
          <mxGeometry x="110" y="990" width="80" height="80" as="geometry" />
        </mxCell>
        <mxCell id="nU2St9TEeWDOG-n0TkPk-152" value="" style="ellipse;whiteSpace=wrap;html=1;aspect=fixed;fillColor=#ffe6cc;strokeColor=#d79b00;" vertex="1" parent="1">
          <mxGeometry x="190" y="990" width="80" height="80" as="geometry" />
        </mxCell>
        <mxCell id="nU2St9TEeWDOG-n0TkPk-153" value="" style="ellipse;whiteSpace=wrap;html=1;aspect=fixed;fillColor=#ffe6cc;strokeColor=#d79b00;" vertex="1" parent="1">
          <mxGeometry x="270" y="990" width="80" height="80" as="geometry" />
        </mxCell>
        <mxCell id="nU2St9TEeWDOG-n0TkPk-154" value="" style="ellipse;whiteSpace=wrap;html=1;aspect=fixed;fillColor=#ffe6cc;strokeColor=#d79b00;" vertex="1" parent="1">
          <mxGeometry x="350" y="990" width="80" height="80" as="geometry" />
        </mxCell>
        <mxCell id="nU2St9TEeWDOG-n0TkPk-155" value="" style="ellipse;whiteSpace=wrap;html=1;aspect=fixed;fillColor=#ffe6cc;strokeColor=#d79b00;" vertex="1" parent="1">
          <mxGeometry x="430" y="990" width="80" height="80" as="geometry" />
        </mxCell>
        <mxCell id="nU2St9TEeWDOG-n0TkPk-156" value="" style="ellipse;whiteSpace=wrap;html=1;aspect=fixed;fillColor=#ffe6cc;strokeColor=#d79b00;" vertex="1" parent="1">
          <mxGeometry x="510" y="990" width="80" height="80" as="geometry" />
        </mxCell>
        <mxCell id="nU2St9TEeWDOG-n0TkPk-157" value="" style="ellipse;whiteSpace=wrap;html=1;aspect=fixed;fillColor=#ffe6cc;strokeColor=#d79b00;" vertex="1" parent="1">
          <mxGeometry x="590" y="990" width="80" height="80" as="geometry" />
        </mxCell>
        <mxCell id="nU2St9TEeWDOG-n0TkPk-158" value="" style="ellipse;whiteSpace=wrap;html=1;aspect=fixed;fillColor=#ffe6cc;strokeColor=#d79b00;" vertex="1" parent="1">
          <mxGeometry x="670" y="990" width="80" height="80" as="geometry" />
        </mxCell>
        <mxCell id="nU2St9TEeWDOG-n0TkPk-159" value="" style="ellipse;whiteSpace=wrap;html=1;aspect=fixed;fillColor=#ffe6cc;strokeColor=#d79b00;" vertex="1" parent="1">
          <mxGeometry x="750" y="990" width="80" height="80" as="geometry" />
        </mxCell>
        <mxCell id="nU2St9TEeWDOG-n0TkPk-160" value="" style="ellipse;whiteSpace=wrap;html=1;aspect=fixed;fillColor=#ffe6cc;strokeColor=#d79b00;" vertex="1" parent="1">
          <mxGeometry x="880" y="280" width="80" height="80" as="geometry" />
        </mxCell>
        <mxCell id="nU2St9TEeWDOG-n0TkPk-161" value="" style="ellipse;whiteSpace=wrap;html=1;aspect=fixed;fillColor=#ffe6cc;strokeColor=#d79b00;" vertex="1" parent="1">
          <mxGeometry x="960" y="280" width="80" height="80" as="geometry" />
        </mxCell>
        <mxCell id="nU2St9TEeWDOG-n0TkPk-162" value="" style="ellipse;whiteSpace=wrap;html=1;aspect=fixed;fillColor=#ffe6cc;strokeColor=#d79b00;" vertex="1" parent="1">
          <mxGeometry x="1040" y="280" width="80" height="80" as="geometry" />
        </mxCell>
        <mxCell id="nU2St9TEeWDOG-n0TkPk-163" value="" style="ellipse;whiteSpace=wrap;html=1;aspect=fixed;fillColor=#ffe6cc;strokeColor=#d79b00;" vertex="1" parent="1">
          <mxGeometry x="1120" y="280" width="80" height="80" as="geometry" />
        </mxCell>
        <mxCell id="nU2St9TEeWDOG-n0TkPk-164" value="" style="ellipse;whiteSpace=wrap;html=1;aspect=fixed;fillColor=#ffe6cc;strokeColor=#d79b00;" vertex="1" parent="1">
          <mxGeometry x="1200" y="280" width="80" height="80" as="geometry" />
        </mxCell>
        <mxCell id="nU2St9TEeWDOG-n0TkPk-165" value="" style="ellipse;whiteSpace=wrap;html=1;aspect=fixed;fillColor=#ffe6cc;strokeColor=#d79b00;" vertex="1" parent="1">
          <mxGeometry x="1280" y="280" width="80" height="80" as="geometry" />
        </mxCell>
        <mxCell id="nU2St9TEeWDOG-n0TkPk-166" value="" style="ellipse;whiteSpace=wrap;html=1;aspect=fixed;fillColor=#ffe6cc;strokeColor=#d79b00;" vertex="1" parent="1">
          <mxGeometry x="1360" y="280" width="80" height="80" as="geometry" />
        </mxCell>
        <mxCell id="nU2St9TEeWDOG-n0TkPk-167" value="" style="ellipse;whiteSpace=wrap;html=1;aspect=fixed;fillColor=#ffe6cc;strokeColor=#d79b00;" vertex="1" parent="1">
          <mxGeometry x="1440" y="280" width="80" height="80" as="geometry" />
        </mxCell>
        <mxCell id="nU2St9TEeWDOG-n0TkPk-168" value="" style="ellipse;whiteSpace=wrap;html=1;aspect=fixed;fillColor=#ffe6cc;strokeColor=#d79b00;" vertex="1" parent="1">
          <mxGeometry x="1520" y="280" width="80" height="80" as="geometry" />
        </mxCell>
        <mxCell id="nU2St9TEeWDOG-n0TkPk-169" value="" style="ellipse;whiteSpace=wrap;html=1;aspect=fixed;fillColor=#ffe6cc;strokeColor=#d79b00;" vertex="1" parent="1">
          <mxGeometry x="1600" y="280" width="80" height="80" as="geometry" />
        </mxCell>
        <mxCell id="nU2St9TEeWDOG-n0TkPk-170" value="" style="ellipse;whiteSpace=wrap;html=1;aspect=fixed;fillColor=#ffe6cc;strokeColor=#d79b00;" vertex="1" parent="1">
          <mxGeometry x="920" y="350" width="80" height="80" as="geometry" />
        </mxCell>
        <mxCell id="nU2St9TEeWDOG-n0TkPk-171" value="" style="ellipse;whiteSpace=wrap;html=1;aspect=fixed;fillColor=#ffe6cc;strokeColor=#d79b00;" vertex="1" parent="1">
          <mxGeometry x="1000" y="350" width="80" height="80" as="geometry" />
        </mxCell>
        <mxCell id="nU2St9TEeWDOG-n0TkPk-172" value="" style="ellipse;whiteSpace=wrap;html=1;aspect=fixed;fillColor=#ffe6cc;strokeColor=#d79b00;" vertex="1" parent="1">
          <mxGeometry x="1080" y="350" width="80" height="80" as="geometry" />
        </mxCell>
        <mxCell id="nU2St9TEeWDOG-n0TkPk-173" value="" style="ellipse;whiteSpace=wrap;html=1;aspect=fixed;fillColor=#ffe6cc;strokeColor=#d79b00;" vertex="1" parent="1">
          <mxGeometry x="1160" y="350" width="80" height="80" as="geometry" />
        </mxCell>
        <mxCell id="nU2St9TEeWDOG-n0TkPk-174" value="" style="ellipse;whiteSpace=wrap;html=1;aspect=fixed;fillColor=#ffe6cc;strokeColor=#d79b00;" vertex="1" parent="1">
          <mxGeometry x="1240" y="350" width="80" height="80" as="geometry" />
        </mxCell>
        <mxCell id="nU2St9TEeWDOG-n0TkPk-175" value="" style="ellipse;whiteSpace=wrap;html=1;aspect=fixed;fillColor=#ffe6cc;strokeColor=#d79b00;" vertex="1" parent="1">
          <mxGeometry x="1320" y="350" width="80" height="80" as="geometry" />
        </mxCell>
        <mxCell id="nU2St9TEeWDOG-n0TkPk-176" value="" style="ellipse;whiteSpace=wrap;html=1;aspect=fixed;fillColor=#ffe6cc;strokeColor=#d79b00;" vertex="1" parent="1">
          <mxGeometry x="1400" y="350" width="80" height="80" as="geometry" />
        </mxCell>
        <mxCell id="nU2St9TEeWDOG-n0TkPk-177" value="" style="ellipse;whiteSpace=wrap;html=1;aspect=fixed;fillColor=#ffe6cc;strokeColor=#d79b00;" vertex="1" parent="1">
          <mxGeometry x="1480" y="350" width="80" height="80" as="geometry" />
        </mxCell>
        <mxCell id="nU2St9TEeWDOG-n0TkPk-178" value="" style="ellipse;whiteSpace=wrap;html=1;aspect=fixed;fillColor=#ffe6cc;strokeColor=#d79b00;" vertex="1" parent="1">
          <mxGeometry x="1560" y="350" width="80" height="80" as="geometry" />
        </mxCell>
        <mxCell id="nU2St9TEeWDOG-n0TkPk-180" value="" style="ellipse;whiteSpace=wrap;html=1;aspect=fixed;fillColor=#ffe6cc;strokeColor=#d79b00;" vertex="1" parent="1">
          <mxGeometry x="880" y="420" width="80" height="80" as="geometry" />
        </mxCell>
        <mxCell id="nU2St9TEeWDOG-n0TkPk-181" value="" style="ellipse;whiteSpace=wrap;html=1;aspect=fixed;fillColor=#ffe6cc;strokeColor=#d79b00;" vertex="1" parent="1">
          <mxGeometry x="960" y="420" width="80" height="80" as="geometry" />
        </mxCell>
        <mxCell id="nU2St9TEeWDOG-n0TkPk-182" value="" style="ellipse;whiteSpace=wrap;html=1;aspect=fixed;fillColor=#ffe6cc;strokeColor=#d79b00;" vertex="1" parent="1">
          <mxGeometry x="1040" y="420" width="80" height="80" as="geometry" />
        </mxCell>
        <mxCell id="nU2St9TEeWDOG-n0TkPk-183" value="" style="ellipse;whiteSpace=wrap;html=1;aspect=fixed;fillColor=#ffe6cc;strokeColor=#d79b00;" vertex="1" parent="1">
          <mxGeometry x="1120" y="420" width="80" height="80" as="geometry" />
        </mxCell>
        <mxCell id="nU2St9TEeWDOG-n0TkPk-184" value="" style="ellipse;whiteSpace=wrap;html=1;aspect=fixed;fillColor=#ffe6cc;strokeColor=#d79b00;" vertex="1" parent="1">
          <mxGeometry x="1200" y="420" width="80" height="80" as="geometry" />
        </mxCell>
        <mxCell id="nU2St9TEeWDOG-n0TkPk-185" value="" style="ellipse;whiteSpace=wrap;html=1;aspect=fixed;fillColor=#ffe6cc;strokeColor=#d79b00;" vertex="1" parent="1">
          <mxGeometry x="1280" y="420" width="80" height="80" as="geometry" />
        </mxCell>
        <mxCell id="nU2St9TEeWDOG-n0TkPk-186" value="" style="ellipse;whiteSpace=wrap;html=1;aspect=fixed;fillColor=#ffe6cc;strokeColor=#d79b00;" vertex="1" parent="1">
          <mxGeometry x="1360" y="420" width="80" height="80" as="geometry" />
        </mxCell>
        <mxCell id="nU2St9TEeWDOG-n0TkPk-187" value="" style="ellipse;whiteSpace=wrap;html=1;aspect=fixed;fillColor=#ffe6cc;strokeColor=#d79b00;" vertex="1" parent="1">
          <mxGeometry x="1440" y="420" width="80" height="80" as="geometry" />
        </mxCell>
        <mxCell id="nU2St9TEeWDOG-n0TkPk-188" value="" style="ellipse;whiteSpace=wrap;html=1;aspect=fixed;fillColor=#ffe6cc;strokeColor=#d79b00;" vertex="1" parent="1">
          <mxGeometry x="1520" y="420" width="80" height="80" as="geometry" />
        </mxCell>
        <mxCell id="nU2St9TEeWDOG-n0TkPk-189" value="" style="ellipse;whiteSpace=wrap;html=1;aspect=fixed;fillColor=#ffe6cc;strokeColor=#d79b00;" vertex="1" parent="1">
          <mxGeometry x="1600" y="420" width="80" height="80" as="geometry" />
        </mxCell>
        <mxCell id="nU2St9TEeWDOG-n0TkPk-190" value="" style="ellipse;whiteSpace=wrap;html=1;aspect=fixed;fillColor=#ffe6cc;strokeColor=#d79b00;" vertex="1" parent="1">
          <mxGeometry x="920" y="490" width="80" height="80" as="geometry" />
        </mxCell>
        <mxCell id="nU2St9TEeWDOG-n0TkPk-191" value="" style="ellipse;whiteSpace=wrap;html=1;aspect=fixed;fillColor=#ffe6cc;strokeColor=#d79b00;" vertex="1" parent="1">
          <mxGeometry x="1000" y="490" width="80" height="80" as="geometry" />
        </mxCell>
        <mxCell id="nU2St9TEeWDOG-n0TkPk-192" value="" style="ellipse;whiteSpace=wrap;html=1;aspect=fixed;fillColor=#ffe6cc;strokeColor=#d79b00;" vertex="1" parent="1">
          <mxGeometry x="1080" y="490" width="80" height="80" as="geometry" />
        </mxCell>
        <mxCell id="nU2St9TEeWDOG-n0TkPk-193" value="" style="ellipse;whiteSpace=wrap;html=1;aspect=fixed;fillColor=#ffe6cc;strokeColor=#d79b00;" vertex="1" parent="1">
          <mxGeometry x="1160" y="490" width="80" height="80" as="geometry" />
        </mxCell>
        <mxCell id="nU2St9TEeWDOG-n0TkPk-194" value="" style="ellipse;whiteSpace=wrap;html=1;aspect=fixed;fillColor=#ffe6cc;strokeColor=#d79b00;" vertex="1" parent="1">
          <mxGeometry x="1240" y="490" width="80" height="80" as="geometry" />
        </mxCell>
        <mxCell id="nU2St9TEeWDOG-n0TkPk-195" value="" style="ellipse;whiteSpace=wrap;html=1;aspect=fixed;fillColor=#ffe6cc;strokeColor=#d79b00;" vertex="1" parent="1">
          <mxGeometry x="1320" y="490" width="80" height="80" as="geometry" />
        </mxCell>
        <mxCell id="nU2St9TEeWDOG-n0TkPk-196" value="" style="ellipse;whiteSpace=wrap;html=1;aspect=fixed;fillColor=#ffe6cc;strokeColor=#d79b00;" vertex="1" parent="1">
          <mxGeometry x="1400" y="490" width="80" height="80" as="geometry" />
        </mxCell>
        <mxCell id="nU2St9TEeWDOG-n0TkPk-197" value="" style="ellipse;whiteSpace=wrap;html=1;aspect=fixed;fillColor=#ffe6cc;strokeColor=#d79b00;" vertex="1" parent="1">
          <mxGeometry x="1480" y="490" width="80" height="80" as="geometry" />
        </mxCell>
        <mxCell id="nU2St9TEeWDOG-n0TkPk-198" value="" style="ellipse;whiteSpace=wrap;html=1;aspect=fixed;fillColor=#ffe6cc;strokeColor=#d79b00;" vertex="1" parent="1">
          <mxGeometry x="1560" y="490" width="80" height="80" as="geometry" />
        </mxCell>
        <mxCell id="nU2St9TEeWDOG-n0TkPk-200" value="" style="ellipse;whiteSpace=wrap;html=1;aspect=fixed;fillColor=#ffe6cc;strokeColor=#d79b00;" vertex="1" parent="1">
          <mxGeometry x="880" y="560" width="80" height="80" as="geometry" />
        </mxCell>
        <mxCell id="nU2St9TEeWDOG-n0TkPk-201" value="" style="ellipse;whiteSpace=wrap;html=1;aspect=fixed;fillColor=#ffe6cc;strokeColor=#d79b00;" vertex="1" parent="1">
          <mxGeometry x="960" y="560" width="80" height="80" as="geometry" />
        </mxCell>
        <mxCell id="nU2St9TEeWDOG-n0TkPk-202" value="" style="ellipse;whiteSpace=wrap;html=1;aspect=fixed;fillColor=#ffe6cc;strokeColor=#d79b00;" vertex="1" parent="1">
          <mxGeometry x="1040" y="560" width="80" height="80" as="geometry" />
        </mxCell>
        <mxCell id="nU2St9TEeWDOG-n0TkPk-203" value="" style="ellipse;whiteSpace=wrap;html=1;aspect=fixed;fillColor=#ffe6cc;strokeColor=#d79b00;" vertex="1" parent="1">
          <mxGeometry x="1120" y="560" width="80" height="80" as="geometry" />
        </mxCell>
        <mxCell id="nU2St9TEeWDOG-n0TkPk-204" value="" style="ellipse;whiteSpace=wrap;html=1;aspect=fixed;fillColor=#ffe6cc;strokeColor=#d79b00;" vertex="1" parent="1">
          <mxGeometry x="1200" y="560" width="80" height="80" as="geometry" />
        </mxCell>
        <mxCell id="nU2St9TEeWDOG-n0TkPk-205" value="" style="ellipse;whiteSpace=wrap;html=1;aspect=fixed;fillColor=#ffe6cc;strokeColor=#d79b00;" vertex="1" parent="1">
          <mxGeometry x="1280" y="560" width="80" height="80" as="geometry" />
        </mxCell>
        <mxCell id="nU2St9TEeWDOG-n0TkPk-206" value="" style="ellipse;whiteSpace=wrap;html=1;aspect=fixed;fillColor=#ffe6cc;strokeColor=#d79b00;" vertex="1" parent="1">
          <mxGeometry x="1360" y="560" width="80" height="80" as="geometry" />
        </mxCell>
        <mxCell id="nU2St9TEeWDOG-n0TkPk-207" value="" style="ellipse;whiteSpace=wrap;html=1;aspect=fixed;fillColor=#ffe6cc;strokeColor=#d79b00;" vertex="1" parent="1">
          <mxGeometry x="1440" y="560" width="80" height="80" as="geometry" />
        </mxCell>
        <mxCell id="nU2St9TEeWDOG-n0TkPk-208" value="" style="ellipse;whiteSpace=wrap;html=1;aspect=fixed;fillColor=#ffe6cc;strokeColor=#d79b00;" vertex="1" parent="1">
          <mxGeometry x="1520" y="560" width="80" height="80" as="geometry" />
        </mxCell>
        <mxCell id="nU2St9TEeWDOG-n0TkPk-209" value="" style="ellipse;whiteSpace=wrap;html=1;aspect=fixed;fillColor=#ffe6cc;strokeColor=#d79b00;" vertex="1" parent="1">
          <mxGeometry x="1600" y="560" width="80" height="80" as="geometry" />
        </mxCell>
        <mxCell id="nU2St9TEeWDOG-n0TkPk-210" value="" style="ellipse;whiteSpace=wrap;html=1;aspect=fixed;fillColor=#ffe6cc;strokeColor=#d79b00;" vertex="1" parent="1">
          <mxGeometry x="920" y="630" width="80" height="80" as="geometry" />
        </mxCell>
        <mxCell id="nU2St9TEeWDOG-n0TkPk-211" value="" style="ellipse;whiteSpace=wrap;html=1;aspect=fixed;fillColor=#ffe6cc;strokeColor=#d79b00;" vertex="1" parent="1">
          <mxGeometry x="1000" y="630" width="80" height="80" as="geometry" />
        </mxCell>
        <mxCell id="nU2St9TEeWDOG-n0TkPk-212" value="" style="ellipse;whiteSpace=wrap;html=1;aspect=fixed;fillColor=#ffe6cc;strokeColor=#d79b00;" vertex="1" parent="1">
          <mxGeometry x="1080" y="630" width="80" height="80" as="geometry" />
        </mxCell>
        <mxCell id="nU2St9TEeWDOG-n0TkPk-213" value="" style="ellipse;whiteSpace=wrap;html=1;aspect=fixed;fillColor=#ffe6cc;strokeColor=#d79b00;" vertex="1" parent="1">
          <mxGeometry x="1160" y="630" width="80" height="80" as="geometry" />
        </mxCell>
        <mxCell id="nU2St9TEeWDOG-n0TkPk-214" value="" style="ellipse;whiteSpace=wrap;html=1;aspect=fixed;fillColor=#ffe6cc;strokeColor=#d79b00;" vertex="1" parent="1">
          <mxGeometry x="1240" y="630" width="80" height="80" as="geometry" />
        </mxCell>
        <mxCell id="nU2St9TEeWDOG-n0TkPk-215" value="" style="ellipse;whiteSpace=wrap;html=1;aspect=fixed;fillColor=#ffe6cc;strokeColor=#d79b00;" vertex="1" parent="1">
          <mxGeometry x="1320" y="630" width="80" height="80" as="geometry" />
        </mxCell>
        <mxCell id="nU2St9TEeWDOG-n0TkPk-216" value="" style="ellipse;whiteSpace=wrap;html=1;aspect=fixed;fillColor=#ffe6cc;strokeColor=#d79b00;" vertex="1" parent="1">
          <mxGeometry x="1400" y="630" width="80" height="80" as="geometry" />
        </mxCell>
        <mxCell id="nU2St9TEeWDOG-n0TkPk-217" value="" style="ellipse;whiteSpace=wrap;html=1;aspect=fixed;fillColor=#ffe6cc;strokeColor=#d79b00;" vertex="1" parent="1">
          <mxGeometry x="1480" y="630" width="80" height="80" as="geometry" />
        </mxCell>
        <mxCell id="nU2St9TEeWDOG-n0TkPk-218" value="" style="ellipse;whiteSpace=wrap;html=1;aspect=fixed;fillColor=#ffe6cc;strokeColor=#d79b00;" vertex="1" parent="1">
          <mxGeometry x="1560" y="630" width="80" height="80" as="geometry" />
        </mxCell>
        <mxCell id="nU2St9TEeWDOG-n0TkPk-220" value="" style="ellipse;whiteSpace=wrap;html=1;aspect=fixed;fillColor=#ffe6cc;strokeColor=#d79b00;" vertex="1" parent="1">
          <mxGeometry x="880" y="700" width="80" height="80" as="geometry" />
        </mxCell>
        <mxCell id="nU2St9TEeWDOG-n0TkPk-221" value="" style="ellipse;whiteSpace=wrap;html=1;aspect=fixed;fillColor=#ffe6cc;strokeColor=#d79b00;" vertex="1" parent="1">
          <mxGeometry x="960" y="700" width="80" height="80" as="geometry" />
        </mxCell>
        <mxCell id="nU2St9TEeWDOG-n0TkPk-222" value="" style="ellipse;whiteSpace=wrap;html=1;aspect=fixed;fillColor=#ffe6cc;strokeColor=#d79b00;" vertex="1" parent="1">
          <mxGeometry x="1040" y="700" width="80" height="80" as="geometry" />
        </mxCell>
        <mxCell id="nU2St9TEeWDOG-n0TkPk-223" value="" style="ellipse;whiteSpace=wrap;html=1;aspect=fixed;fillColor=#ffe6cc;strokeColor=#d79b00;" vertex="1" parent="1">
          <mxGeometry x="1120" y="700" width="80" height="80" as="geometry" />
        </mxCell>
        <mxCell id="nU2St9TEeWDOG-n0TkPk-224" value="" style="ellipse;whiteSpace=wrap;html=1;aspect=fixed;fillColor=#ffe6cc;strokeColor=#d79b00;" vertex="1" parent="1">
          <mxGeometry x="1200" y="700" width="80" height="80" as="geometry" />
        </mxCell>
        <mxCell id="nU2St9TEeWDOG-n0TkPk-225" value="" style="ellipse;whiteSpace=wrap;html=1;aspect=fixed;fillColor=#ffe6cc;strokeColor=#d79b00;" vertex="1" parent="1">
          <mxGeometry x="1280" y="700" width="80" height="80" as="geometry" />
        </mxCell>
        <mxCell id="nU2St9TEeWDOG-n0TkPk-226" value="" style="ellipse;whiteSpace=wrap;html=1;aspect=fixed;fillColor=#ffe6cc;strokeColor=#d79b00;" vertex="1" parent="1">
          <mxGeometry x="1360" y="700" width="80" height="80" as="geometry" />
        </mxCell>
        <mxCell id="nU2St9TEeWDOG-n0TkPk-227" value="" style="ellipse;whiteSpace=wrap;html=1;aspect=fixed;fillColor=#ffe6cc;strokeColor=#d79b00;" vertex="1" parent="1">
          <mxGeometry x="1440" y="700" width="80" height="80" as="geometry" />
        </mxCell>
        <mxCell id="nU2St9TEeWDOG-n0TkPk-228" value="" style="ellipse;whiteSpace=wrap;html=1;aspect=fixed;fillColor=#ffe6cc;strokeColor=#d79b00;" vertex="1" parent="1">
          <mxGeometry x="1520" y="700" width="80" height="80" as="geometry" />
        </mxCell>
        <mxCell id="nU2St9TEeWDOG-n0TkPk-229" value="" style="ellipse;whiteSpace=wrap;html=1;aspect=fixed;fillColor=#ffe6cc;strokeColor=#d79b00;" vertex="1" parent="1">
          <mxGeometry x="1600" y="700" width="80" height="80" as="geometry" />
        </mxCell>
        <mxCell id="nU2St9TEeWDOG-n0TkPk-230" value="" style="ellipse;whiteSpace=wrap;html=1;aspect=fixed;fillColor=#ffe6cc;strokeColor=#d79b00;" vertex="1" parent="1">
          <mxGeometry x="920" y="770" width="80" height="80" as="geometry" />
        </mxCell>
        <mxCell id="nU2St9TEeWDOG-n0TkPk-231" value="" style="ellipse;whiteSpace=wrap;html=1;aspect=fixed;fillColor=#ffe6cc;strokeColor=#d79b00;" vertex="1" parent="1">
          <mxGeometry x="1000" y="770" width="80" height="80" as="geometry" />
        </mxCell>
        <mxCell id="nU2St9TEeWDOG-n0TkPk-232" value="" style="ellipse;whiteSpace=wrap;html=1;aspect=fixed;fillColor=#ffe6cc;strokeColor=#d79b00;" vertex="1" parent="1">
          <mxGeometry x="1080" y="770" width="80" height="80" as="geometry" />
        </mxCell>
        <mxCell id="nU2St9TEeWDOG-n0TkPk-233" value="" style="ellipse;whiteSpace=wrap;html=1;aspect=fixed;fillColor=#ffe6cc;strokeColor=#d79b00;" vertex="1" parent="1">
          <mxGeometry x="1160" y="770" width="80" height="80" as="geometry" />
        </mxCell>
        <mxCell id="nU2St9TEeWDOG-n0TkPk-234" value="" style="ellipse;whiteSpace=wrap;html=1;aspect=fixed;fillColor=#ffe6cc;strokeColor=#d79b00;" vertex="1" parent="1">
          <mxGeometry x="1240" y="770" width="80" height="80" as="geometry" />
        </mxCell>
        <mxCell id="nU2St9TEeWDOG-n0TkPk-235" value="" style="ellipse;whiteSpace=wrap;html=1;aspect=fixed;fillColor=#ffe6cc;strokeColor=#d79b00;" vertex="1" parent="1">
          <mxGeometry x="1320" y="770" width="80" height="80" as="geometry" />
        </mxCell>
        <mxCell id="nU2St9TEeWDOG-n0TkPk-236" value="" style="ellipse;whiteSpace=wrap;html=1;aspect=fixed;fillColor=#ffe6cc;strokeColor=#d79b00;" vertex="1" parent="1">
          <mxGeometry x="1400" y="770" width="80" height="80" as="geometry" />
        </mxCell>
        <mxCell id="nU2St9TEeWDOG-n0TkPk-237" value="" style="ellipse;whiteSpace=wrap;html=1;aspect=fixed;fillColor=#ffe6cc;strokeColor=#d79b00;" vertex="1" parent="1">
          <mxGeometry x="1480" y="770" width="80" height="80" as="geometry" />
        </mxCell>
        <mxCell id="nU2St9TEeWDOG-n0TkPk-238" value="" style="ellipse;whiteSpace=wrap;html=1;aspect=fixed;fillColor=#ffe6cc;strokeColor=#d79b00;" vertex="1" parent="1">
          <mxGeometry x="1560" y="770" width="80" height="80" as="geometry" />
        </mxCell>
        <mxCell id="nU2St9TEeWDOG-n0TkPk-240" value="" style="ellipse;whiteSpace=wrap;html=1;aspect=fixed;fillColor=#ffe6cc;strokeColor=#d79b00;" vertex="1" parent="1">
          <mxGeometry x="880" y="840" width="80" height="80" as="geometry" />
        </mxCell>
        <mxCell id="nU2St9TEeWDOG-n0TkPk-241" value="" style="ellipse;whiteSpace=wrap;html=1;aspect=fixed;fillColor=#ffe6cc;strokeColor=#d79b00;" vertex="1" parent="1">
          <mxGeometry x="960" y="840" width="80" height="80" as="geometry" />
        </mxCell>
        <mxCell id="nU2St9TEeWDOG-n0TkPk-242" value="" style="ellipse;whiteSpace=wrap;html=1;aspect=fixed;fillColor=#ffe6cc;strokeColor=#d79b00;" vertex="1" parent="1">
          <mxGeometry x="1040" y="840" width="80" height="80" as="geometry" />
        </mxCell>
        <mxCell id="nU2St9TEeWDOG-n0TkPk-243" value="" style="ellipse;whiteSpace=wrap;html=1;aspect=fixed;fillColor=#ffe6cc;strokeColor=#d79b00;" vertex="1" parent="1">
          <mxGeometry x="1120" y="840" width="80" height="80" as="geometry" />
        </mxCell>
        <mxCell id="nU2St9TEeWDOG-n0TkPk-244" value="" style="ellipse;whiteSpace=wrap;html=1;aspect=fixed;fillColor=#ffe6cc;strokeColor=#d79b00;" vertex="1" parent="1">
          <mxGeometry x="1200" y="840" width="80" height="80" as="geometry" />
        </mxCell>
        <mxCell id="nU2St9TEeWDOG-n0TkPk-245" value="" style="ellipse;whiteSpace=wrap;html=1;aspect=fixed;fillColor=#ffe6cc;strokeColor=#d79b00;" vertex="1" parent="1">
          <mxGeometry x="1280" y="840" width="80" height="80" as="geometry" />
        </mxCell>
        <mxCell id="nU2St9TEeWDOG-n0TkPk-246" value="" style="ellipse;whiteSpace=wrap;html=1;aspect=fixed;fillColor=#ffe6cc;strokeColor=#d79b00;" vertex="1" parent="1">
          <mxGeometry x="1360" y="840" width="80" height="80" as="geometry" />
        </mxCell>
        <mxCell id="nU2St9TEeWDOG-n0TkPk-247" value="" style="ellipse;whiteSpace=wrap;html=1;aspect=fixed;fillColor=#ffe6cc;strokeColor=#d79b00;" vertex="1" parent="1">
          <mxGeometry x="1440" y="840" width="80" height="80" as="geometry" />
        </mxCell>
        <mxCell id="nU2St9TEeWDOG-n0TkPk-248" value="" style="ellipse;whiteSpace=wrap;html=1;aspect=fixed;fillColor=#ffe6cc;strokeColor=#d79b00;" vertex="1" parent="1">
          <mxGeometry x="1520" y="840" width="80" height="80" as="geometry" />
        </mxCell>
        <mxCell id="nU2St9TEeWDOG-n0TkPk-249" value="" style="ellipse;whiteSpace=wrap;html=1;aspect=fixed;fillColor=#ffe6cc;strokeColor=#d79b00;" vertex="1" parent="1">
          <mxGeometry x="1600" y="840" width="80" height="80" as="geometry" />
        </mxCell>
        <mxCell id="nU2St9TEeWDOG-n0TkPk-250" value="" style="ellipse;whiteSpace=wrap;html=1;aspect=fixed;fillColor=#ffe6cc;strokeColor=#d79b00;" vertex="1" parent="1">
          <mxGeometry x="920" y="910" width="80" height="80" as="geometry" />
        </mxCell>
        <mxCell id="nU2St9TEeWDOG-n0TkPk-251" value="" style="ellipse;whiteSpace=wrap;html=1;aspect=fixed;fillColor=#ffe6cc;strokeColor=#d79b00;" vertex="1" parent="1">
          <mxGeometry x="1000" y="910" width="80" height="80" as="geometry" />
        </mxCell>
        <mxCell id="nU2St9TEeWDOG-n0TkPk-252" value="" style="ellipse;whiteSpace=wrap;html=1;aspect=fixed;fillColor=#ffe6cc;strokeColor=#d79b00;" vertex="1" parent="1">
          <mxGeometry x="1080" y="910" width="80" height="80" as="geometry" />
        </mxCell>
        <mxCell id="nU2St9TEeWDOG-n0TkPk-253" value="" style="ellipse;whiteSpace=wrap;html=1;aspect=fixed;fillColor=#ffe6cc;strokeColor=#d79b00;" vertex="1" parent="1">
          <mxGeometry x="1160" y="910" width="80" height="80" as="geometry" />
        </mxCell>
        <mxCell id="nU2St9TEeWDOG-n0TkPk-254" value="" style="ellipse;whiteSpace=wrap;html=1;aspect=fixed;fillColor=#ffe6cc;strokeColor=#d79b00;" vertex="1" parent="1">
          <mxGeometry x="1240" y="910" width="80" height="80" as="geometry" />
        </mxCell>
        <mxCell id="nU2St9TEeWDOG-n0TkPk-255" value="" style="ellipse;whiteSpace=wrap;html=1;aspect=fixed;fillColor=#ffe6cc;strokeColor=#d79b00;" vertex="1" parent="1">
          <mxGeometry x="1320" y="910" width="80" height="80" as="geometry" />
        </mxCell>
        <mxCell id="nU2St9TEeWDOG-n0TkPk-256" value="" style="ellipse;whiteSpace=wrap;html=1;aspect=fixed;fillColor=#ffe6cc;strokeColor=#d79b00;" vertex="1" parent="1">
          <mxGeometry x="1400" y="910" width="80" height="80" as="geometry" />
        </mxCell>
        <mxCell id="nU2St9TEeWDOG-n0TkPk-257" value="" style="ellipse;whiteSpace=wrap;html=1;aspect=fixed;fillColor=#ffe6cc;strokeColor=#d79b00;" vertex="1" parent="1">
          <mxGeometry x="1480" y="910" width="80" height="80" as="geometry" />
        </mxCell>
        <mxCell id="nU2St9TEeWDOG-n0TkPk-258" value="" style="ellipse;whiteSpace=wrap;html=1;aspect=fixed;fillColor=#ffe6cc;strokeColor=#d79b00;" vertex="1" parent="1">
          <mxGeometry x="1560" y="910" width="80" height="80" as="geometry" />
        </mxCell>
        <mxCell id="nU2St9TEeWDOG-n0TkPk-260" value="" style="whiteSpace=wrap;html=1;aspect=fixed;fillColor=none;" vertex="1" parent="1">
          <mxGeometry x="30" y="270" width="800" height="800" as="geometry" />
        </mxCell>
        <mxCell id="nU2St9TEeWDOG-n0TkPk-262" value="" style="ellipse;whiteSpace=wrap;html=1;aspect=fixed;fillColor=#ffe6cc;strokeColor=#d79b00;" vertex="1" parent="1">
          <mxGeometry x="880" y="980" width="80" height="80" as="geometry" />
        </mxCell>
        <mxCell id="nU2St9TEeWDOG-n0TkPk-263" value="" style="ellipse;whiteSpace=wrap;html=1;aspect=fixed;fillColor=#ffe6cc;strokeColor=#d79b00;" vertex="1" parent="1">
          <mxGeometry x="960" y="980" width="80" height="80" as="geometry" />
        </mxCell>
        <mxCell id="nU2St9TEeWDOG-n0TkPk-264" value="" style="ellipse;whiteSpace=wrap;html=1;aspect=fixed;fillColor=#ffe6cc;strokeColor=#d79b00;" vertex="1" parent="1">
          <mxGeometry x="1040" y="980" width="80" height="80" as="geometry" />
        </mxCell>
        <mxCell id="nU2St9TEeWDOG-n0TkPk-265" value="" style="ellipse;whiteSpace=wrap;html=1;aspect=fixed;fillColor=#ffe6cc;strokeColor=#d79b00;" vertex="1" parent="1">
          <mxGeometry x="1120" y="980" width="80" height="80" as="geometry" />
        </mxCell>
        <mxCell id="nU2St9TEeWDOG-n0TkPk-266" value="" style="ellipse;whiteSpace=wrap;html=1;aspect=fixed;fillColor=#ffe6cc;strokeColor=#d79b00;" vertex="1" parent="1">
          <mxGeometry x="1200" y="980" width="80" height="80" as="geometry" />
        </mxCell>
        <mxCell id="nU2St9TEeWDOG-n0TkPk-267" value="" style="ellipse;whiteSpace=wrap;html=1;aspect=fixed;fillColor=#ffe6cc;strokeColor=#d79b00;" vertex="1" parent="1">
          <mxGeometry x="1280" y="980" width="80" height="80" as="geometry" />
        </mxCell>
        <mxCell id="nU2St9TEeWDOG-n0TkPk-268" value="" style="ellipse;whiteSpace=wrap;html=1;aspect=fixed;fillColor=#ffe6cc;strokeColor=#d79b00;" vertex="1" parent="1">
          <mxGeometry x="1360" y="980" width="80" height="80" as="geometry" />
        </mxCell>
        <mxCell id="nU2St9TEeWDOG-n0TkPk-269" value="" style="ellipse;whiteSpace=wrap;html=1;aspect=fixed;fillColor=#ffe6cc;strokeColor=#d79b00;" vertex="1" parent="1">
          <mxGeometry x="1440" y="980" width="80" height="80" as="geometry" />
        </mxCell>
        <mxCell id="nU2St9TEeWDOG-n0TkPk-270" value="" style="ellipse;whiteSpace=wrap;html=1;aspect=fixed;fillColor=#ffe6cc;strokeColor=#d79b00;" vertex="1" parent="1">
          <mxGeometry x="1520" y="980" width="80" height="80" as="geometry" />
        </mxCell>
        <mxCell id="nU2St9TEeWDOG-n0TkPk-271" value="" style="ellipse;whiteSpace=wrap;html=1;aspect=fixed;fillColor=#ffe6cc;strokeColor=#d79b00;" vertex="1" parent="1">
          <mxGeometry x="1600" y="980" width="80" height="80" as="geometry" />
        </mxCell>
        <mxCell id="nU2St9TEeWDOG-n0TkPk-387" value="" style="group;rotation=90;" vertex="1" connectable="0" parent="1">
          <mxGeometry x="1710" y="270" width="800" height="800" as="geometry" />
        </mxCell>
        <mxCell id="nU2St9TEeWDOG-n0TkPk-281" value="" style="whiteSpace=wrap;html=1;aspect=fixed;fillColor=none;rotation=90;" vertex="1" parent="nU2St9TEeWDOG-n0TkPk-387">
          <mxGeometry width="800" height="800" as="geometry" />
        </mxCell>
        <mxCell id="nU2St9TEeWDOG-n0TkPk-282" value="" style="ellipse;whiteSpace=wrap;html=1;aspect=fixed;fillColor=#ffe6cc;strokeColor=#d79b00;rotation=90;" vertex="1" parent="nU2St9TEeWDOG-n0TkPk-387">
          <mxGeometry x="710" width="80" height="80" as="geometry" />
        </mxCell>
        <mxCell id="nU2St9TEeWDOG-n0TkPk-283" value="" style="ellipse;whiteSpace=wrap;html=1;aspect=fixed;fillColor=#ffe6cc;strokeColor=#d79b00;rotation=90;" vertex="1" parent="nU2St9TEeWDOG-n0TkPk-387">
          <mxGeometry x="710" y="80" width="80" height="80" as="geometry" />
        </mxCell>
        <mxCell id="nU2St9TEeWDOG-n0TkPk-284" value="" style="ellipse;whiteSpace=wrap;html=1;aspect=fixed;fillColor=#ffe6cc;strokeColor=#d79b00;rotation=90;" vertex="1" parent="nU2St9TEeWDOG-n0TkPk-387">
          <mxGeometry x="710" y="160" width="80" height="80" as="geometry" />
        </mxCell>
        <mxCell id="nU2St9TEeWDOG-n0TkPk-285" value="" style="ellipse;whiteSpace=wrap;html=1;aspect=fixed;fillColor=#ffe6cc;strokeColor=#d79b00;rotation=90;" vertex="1" parent="nU2St9TEeWDOG-n0TkPk-387">
          <mxGeometry x="710" y="240" width="80" height="80" as="geometry" />
        </mxCell>
        <mxCell id="nU2St9TEeWDOG-n0TkPk-286" value="" style="ellipse;whiteSpace=wrap;html=1;aspect=fixed;fillColor=#ffe6cc;strokeColor=#d79b00;rotation=90;" vertex="1" parent="nU2St9TEeWDOG-n0TkPk-387">
          <mxGeometry x="710" y="320" width="80" height="80" as="geometry" />
        </mxCell>
        <mxCell id="nU2St9TEeWDOG-n0TkPk-287" value="" style="ellipse;whiteSpace=wrap;html=1;aspect=fixed;fillColor=#ffe6cc;strokeColor=#d79b00;rotation=90;" vertex="1" parent="nU2St9TEeWDOG-n0TkPk-387">
          <mxGeometry x="710" y="400" width="80" height="80" as="geometry" />
        </mxCell>
        <mxCell id="nU2St9TEeWDOG-n0TkPk-288" value="" style="ellipse;whiteSpace=wrap;html=1;aspect=fixed;fillColor=#ffe6cc;strokeColor=#d79b00;rotation=90;" vertex="1" parent="nU2St9TEeWDOG-n0TkPk-387">
          <mxGeometry x="710" y="480" width="80" height="80" as="geometry" />
        </mxCell>
        <mxCell id="nU2St9TEeWDOG-n0TkPk-289" value="" style="ellipse;whiteSpace=wrap;html=1;aspect=fixed;fillColor=#ffe6cc;strokeColor=#d79b00;rotation=90;" vertex="1" parent="nU2St9TEeWDOG-n0TkPk-387">
          <mxGeometry x="710" y="560" width="80" height="80" as="geometry" />
        </mxCell>
        <mxCell id="nU2St9TEeWDOG-n0TkPk-290" value="" style="ellipse;whiteSpace=wrap;html=1;aspect=fixed;fillColor=#ffe6cc;strokeColor=#d79b00;rotation=90;" vertex="1" parent="nU2St9TEeWDOG-n0TkPk-387">
          <mxGeometry x="710" y="640" width="80" height="80" as="geometry" />
        </mxCell>
        <mxCell id="nU2St9TEeWDOG-n0TkPk-291" value="" style="ellipse;whiteSpace=wrap;html=1;aspect=fixed;fillColor=#ffe6cc;strokeColor=#d79b00;rotation=90;" vertex="1" parent="nU2St9TEeWDOG-n0TkPk-387">
          <mxGeometry x="710" y="720" width="80" height="80" as="geometry" />
        </mxCell>
        <mxCell id="nU2St9TEeWDOG-n0TkPk-292" value="" style="ellipse;whiteSpace=wrap;html=1;aspect=fixed;fillColor=#ffe6cc;strokeColor=#d79b00;rotation=90;" vertex="1" parent="nU2St9TEeWDOG-n0TkPk-387">
          <mxGeometry x="640" y="40" width="80" height="80" as="geometry" />
        </mxCell>
        <mxCell id="nU2St9TEeWDOG-n0TkPk-293" value="" style="ellipse;whiteSpace=wrap;html=1;aspect=fixed;fillColor=#ffe6cc;strokeColor=#d79b00;rotation=90;" vertex="1" parent="nU2St9TEeWDOG-n0TkPk-387">
          <mxGeometry x="640" y="120" width="80" height="80" as="geometry" />
        </mxCell>
        <mxCell id="nU2St9TEeWDOG-n0TkPk-294" value="" style="ellipse;whiteSpace=wrap;html=1;aspect=fixed;fillColor=#ffe6cc;strokeColor=#d79b00;rotation=90;" vertex="1" parent="nU2St9TEeWDOG-n0TkPk-387">
          <mxGeometry x="640" y="200" width="80" height="80" as="geometry" />
        </mxCell>
        <mxCell id="nU2St9TEeWDOG-n0TkPk-295" value="" style="ellipse;whiteSpace=wrap;html=1;aspect=fixed;fillColor=#ffe6cc;strokeColor=#d79b00;rotation=90;" vertex="1" parent="nU2St9TEeWDOG-n0TkPk-387">
          <mxGeometry x="640" y="280" width="80" height="80" as="geometry" />
        </mxCell>
        <mxCell id="nU2St9TEeWDOG-n0TkPk-296" value="" style="ellipse;whiteSpace=wrap;html=1;aspect=fixed;fillColor=#ffe6cc;strokeColor=#d79b00;rotation=90;" vertex="1" parent="nU2St9TEeWDOG-n0TkPk-387">
          <mxGeometry x="640" y="360" width="80" height="80" as="geometry" />
        </mxCell>
        <mxCell id="nU2St9TEeWDOG-n0TkPk-297" value="" style="ellipse;whiteSpace=wrap;html=1;aspect=fixed;fillColor=#ffe6cc;strokeColor=#d79b00;rotation=90;" vertex="1" parent="nU2St9TEeWDOG-n0TkPk-387">
          <mxGeometry x="640" y="440" width="80" height="80" as="geometry" />
        </mxCell>
        <mxCell id="nU2St9TEeWDOG-n0TkPk-298" value="" style="ellipse;whiteSpace=wrap;html=1;aspect=fixed;fillColor=#ffe6cc;strokeColor=#d79b00;rotation=90;" vertex="1" parent="nU2St9TEeWDOG-n0TkPk-387">
          <mxGeometry x="640" y="520" width="80" height="80" as="geometry" />
        </mxCell>
        <mxCell id="nU2St9TEeWDOG-n0TkPk-299" value="" style="ellipse;whiteSpace=wrap;html=1;aspect=fixed;fillColor=#ffe6cc;strokeColor=#d79b00;rotation=90;" vertex="1" parent="nU2St9TEeWDOG-n0TkPk-387">
          <mxGeometry x="640" y="600" width="80" height="80" as="geometry" />
        </mxCell>
        <mxCell id="nU2St9TEeWDOG-n0TkPk-300" value="" style="ellipse;whiteSpace=wrap;html=1;aspect=fixed;fillColor=#ffe6cc;strokeColor=#d79b00;rotation=90;" vertex="1" parent="nU2St9TEeWDOG-n0TkPk-387">
          <mxGeometry x="640" y="680" width="80" height="80" as="geometry" />
        </mxCell>
        <mxCell id="nU2St9TEeWDOG-n0TkPk-301" value="" style="ellipse;whiteSpace=wrap;html=1;aspect=fixed;fillColor=#ffe6cc;strokeColor=#d79b00;rotation=90;" vertex="1" parent="nU2St9TEeWDOG-n0TkPk-387">
          <mxGeometry x="570" width="80" height="80" as="geometry" />
        </mxCell>
        <mxCell id="nU2St9TEeWDOG-n0TkPk-302" value="" style="ellipse;whiteSpace=wrap;html=1;aspect=fixed;fillColor=#ffe6cc;strokeColor=#d79b00;rotation=90;" vertex="1" parent="nU2St9TEeWDOG-n0TkPk-387">
          <mxGeometry x="570" y="80" width="80" height="80" as="geometry" />
        </mxCell>
        <mxCell id="nU2St9TEeWDOG-n0TkPk-303" value="" style="ellipse;whiteSpace=wrap;html=1;aspect=fixed;fillColor=#ffe6cc;strokeColor=#d79b00;rotation=90;" vertex="1" parent="nU2St9TEeWDOG-n0TkPk-387">
          <mxGeometry x="570" y="160" width="80" height="80" as="geometry" />
        </mxCell>
        <mxCell id="nU2St9TEeWDOG-n0TkPk-304" value="" style="ellipse;whiteSpace=wrap;html=1;aspect=fixed;fillColor=#ffe6cc;strokeColor=#d79b00;rotation=90;" vertex="1" parent="nU2St9TEeWDOG-n0TkPk-387">
          <mxGeometry x="570" y="240" width="80" height="80" as="geometry" />
        </mxCell>
        <mxCell id="nU2St9TEeWDOG-n0TkPk-305" value="" style="ellipse;whiteSpace=wrap;html=1;aspect=fixed;fillColor=#ffe6cc;strokeColor=#d79b00;rotation=90;" vertex="1" parent="nU2St9TEeWDOG-n0TkPk-387">
          <mxGeometry x="570" y="320" width="80" height="80" as="geometry" />
        </mxCell>
        <mxCell id="nU2St9TEeWDOG-n0TkPk-306" value="" style="ellipse;whiteSpace=wrap;html=1;aspect=fixed;fillColor=#ffe6cc;strokeColor=#d79b00;rotation=90;" vertex="1" parent="nU2St9TEeWDOG-n0TkPk-387">
          <mxGeometry x="570" y="400" width="80" height="80" as="geometry" />
        </mxCell>
        <mxCell id="nU2St9TEeWDOG-n0TkPk-307" value="" style="ellipse;whiteSpace=wrap;html=1;aspect=fixed;fillColor=#ffe6cc;strokeColor=#d79b00;rotation=90;" vertex="1" parent="nU2St9TEeWDOG-n0TkPk-387">
          <mxGeometry x="570" y="480" width="80" height="80" as="geometry" />
        </mxCell>
        <mxCell id="nU2St9TEeWDOG-n0TkPk-308" value="" style="ellipse;whiteSpace=wrap;html=1;aspect=fixed;fillColor=#ffe6cc;strokeColor=#d79b00;rotation=90;" vertex="1" parent="nU2St9TEeWDOG-n0TkPk-387">
          <mxGeometry x="570" y="560" width="80" height="80" as="geometry" />
        </mxCell>
        <mxCell id="nU2St9TEeWDOG-n0TkPk-309" value="" style="ellipse;whiteSpace=wrap;html=1;aspect=fixed;fillColor=#ffe6cc;strokeColor=#d79b00;rotation=90;" vertex="1" parent="nU2St9TEeWDOG-n0TkPk-387">
          <mxGeometry x="570" y="640" width="80" height="80" as="geometry" />
        </mxCell>
        <mxCell id="nU2St9TEeWDOG-n0TkPk-310" value="" style="ellipse;whiteSpace=wrap;html=1;aspect=fixed;fillColor=#ffe6cc;strokeColor=#d79b00;rotation=90;" vertex="1" parent="nU2St9TEeWDOG-n0TkPk-387">
          <mxGeometry x="570" y="720" width="80" height="80" as="geometry" />
        </mxCell>
        <mxCell id="nU2St9TEeWDOG-n0TkPk-311" value="" style="ellipse;whiteSpace=wrap;html=1;aspect=fixed;fillColor=#ffe6cc;strokeColor=#d79b00;rotation=90;" vertex="1" parent="nU2St9TEeWDOG-n0TkPk-387">
          <mxGeometry x="500" y="40" width="80" height="80" as="geometry" />
        </mxCell>
        <mxCell id="nU2St9TEeWDOG-n0TkPk-312" value="" style="ellipse;whiteSpace=wrap;html=1;aspect=fixed;fillColor=#ffe6cc;strokeColor=#d79b00;rotation=90;" vertex="1" parent="nU2St9TEeWDOG-n0TkPk-387">
          <mxGeometry x="500" y="120" width="80" height="80" as="geometry" />
        </mxCell>
        <mxCell id="nU2St9TEeWDOG-n0TkPk-313" value="" style="ellipse;whiteSpace=wrap;html=1;aspect=fixed;fillColor=#ffe6cc;strokeColor=#d79b00;rotation=90;" vertex="1" parent="nU2St9TEeWDOG-n0TkPk-387">
          <mxGeometry x="500" y="200" width="80" height="80" as="geometry" />
        </mxCell>
        <mxCell id="nU2St9TEeWDOG-n0TkPk-314" value="" style="ellipse;whiteSpace=wrap;html=1;aspect=fixed;fillColor=#ffe6cc;strokeColor=#d79b00;rotation=90;" vertex="1" parent="nU2St9TEeWDOG-n0TkPk-387">
          <mxGeometry x="500" y="280" width="80" height="80" as="geometry" />
        </mxCell>
        <mxCell id="nU2St9TEeWDOG-n0TkPk-315" value="" style="ellipse;whiteSpace=wrap;html=1;aspect=fixed;fillColor=#ffe6cc;strokeColor=#d79b00;rotation=90;" vertex="1" parent="nU2St9TEeWDOG-n0TkPk-387">
          <mxGeometry x="500" y="360" width="80" height="80" as="geometry" />
        </mxCell>
        <mxCell id="nU2St9TEeWDOG-n0TkPk-316" value="" style="ellipse;whiteSpace=wrap;html=1;aspect=fixed;fillColor=#ffe6cc;strokeColor=#d79b00;rotation=90;" vertex="1" parent="nU2St9TEeWDOG-n0TkPk-387">
          <mxGeometry x="500" y="440" width="80" height="80" as="geometry" />
        </mxCell>
        <mxCell id="nU2St9TEeWDOG-n0TkPk-317" value="" style="ellipse;whiteSpace=wrap;html=1;aspect=fixed;fillColor=#ffe6cc;strokeColor=#d79b00;rotation=90;" vertex="1" parent="nU2St9TEeWDOG-n0TkPk-387">
          <mxGeometry x="500" y="520" width="80" height="80" as="geometry" />
        </mxCell>
        <mxCell id="nU2St9TEeWDOG-n0TkPk-318" value="" style="ellipse;whiteSpace=wrap;html=1;aspect=fixed;fillColor=#ffe6cc;strokeColor=#d79b00;rotation=90;" vertex="1" parent="nU2St9TEeWDOG-n0TkPk-387">
          <mxGeometry x="500" y="600" width="80" height="80" as="geometry" />
        </mxCell>
        <mxCell id="nU2St9TEeWDOG-n0TkPk-319" value="" style="ellipse;whiteSpace=wrap;html=1;aspect=fixed;fillColor=#ffe6cc;strokeColor=#d79b00;rotation=90;" vertex="1" parent="nU2St9TEeWDOG-n0TkPk-387">
          <mxGeometry x="500" y="680" width="80" height="80" as="geometry" />
        </mxCell>
        <mxCell id="nU2St9TEeWDOG-n0TkPk-320" value="" style="ellipse;whiteSpace=wrap;html=1;aspect=fixed;fillColor=#ffe6cc;strokeColor=#d79b00;rotation=90;" vertex="1" parent="nU2St9TEeWDOG-n0TkPk-387">
          <mxGeometry x="430" width="80" height="80" as="geometry" />
        </mxCell>
        <mxCell id="nU2St9TEeWDOG-n0TkPk-321" value="" style="ellipse;whiteSpace=wrap;html=1;aspect=fixed;fillColor=#ffe6cc;strokeColor=#d79b00;rotation=90;" vertex="1" parent="nU2St9TEeWDOG-n0TkPk-387">
          <mxGeometry x="430" y="80" width="80" height="80" as="geometry" />
        </mxCell>
        <mxCell id="nU2St9TEeWDOG-n0TkPk-322" value="" style="ellipse;whiteSpace=wrap;html=1;aspect=fixed;fillColor=#ffe6cc;strokeColor=#d79b00;rotation=90;" vertex="1" parent="nU2St9TEeWDOG-n0TkPk-387">
          <mxGeometry x="430" y="160" width="80" height="80" as="geometry" />
        </mxCell>
        <mxCell id="nU2St9TEeWDOG-n0TkPk-323" value="" style="ellipse;whiteSpace=wrap;html=1;aspect=fixed;fillColor=#ffe6cc;strokeColor=#d79b00;rotation=90;" vertex="1" parent="nU2St9TEeWDOG-n0TkPk-387">
          <mxGeometry x="430" y="240" width="80" height="80" as="geometry" />
        </mxCell>
        <mxCell id="nU2St9TEeWDOG-n0TkPk-324" value="" style="ellipse;whiteSpace=wrap;html=1;aspect=fixed;fillColor=#ffe6cc;strokeColor=#d79b00;rotation=90;" vertex="1" parent="nU2St9TEeWDOG-n0TkPk-387">
          <mxGeometry x="430" y="320" width="80" height="80" as="geometry" />
        </mxCell>
        <mxCell id="nU2St9TEeWDOG-n0TkPk-325" value="" style="ellipse;whiteSpace=wrap;html=1;aspect=fixed;fillColor=#ffe6cc;strokeColor=#d79b00;rotation=90;" vertex="1" parent="nU2St9TEeWDOG-n0TkPk-387">
          <mxGeometry x="430" y="400" width="80" height="80" as="geometry" />
        </mxCell>
        <mxCell id="nU2St9TEeWDOG-n0TkPk-326" value="" style="ellipse;whiteSpace=wrap;html=1;aspect=fixed;fillColor=#ffe6cc;strokeColor=#d79b00;rotation=90;" vertex="1" parent="nU2St9TEeWDOG-n0TkPk-387">
          <mxGeometry x="430" y="480" width="80" height="80" as="geometry" />
        </mxCell>
        <mxCell id="nU2St9TEeWDOG-n0TkPk-327" value="" style="ellipse;whiteSpace=wrap;html=1;aspect=fixed;fillColor=#ffe6cc;strokeColor=#d79b00;rotation=90;" vertex="1" parent="nU2St9TEeWDOG-n0TkPk-387">
          <mxGeometry x="430" y="560" width="80" height="80" as="geometry" />
        </mxCell>
        <mxCell id="nU2St9TEeWDOG-n0TkPk-328" value="" style="ellipse;whiteSpace=wrap;html=1;aspect=fixed;fillColor=#ffe6cc;strokeColor=#d79b00;rotation=90;" vertex="1" parent="nU2St9TEeWDOG-n0TkPk-387">
          <mxGeometry x="430" y="640" width="80" height="80" as="geometry" />
        </mxCell>
        <mxCell id="nU2St9TEeWDOG-n0TkPk-329" value="" style="ellipse;whiteSpace=wrap;html=1;aspect=fixed;fillColor=#ffe6cc;strokeColor=#d79b00;rotation=90;" vertex="1" parent="nU2St9TEeWDOG-n0TkPk-387">
          <mxGeometry x="430" y="720" width="80" height="80" as="geometry" />
        </mxCell>
        <mxCell id="nU2St9TEeWDOG-n0TkPk-330" value="" style="ellipse;whiteSpace=wrap;html=1;aspect=fixed;fillColor=#ffe6cc;strokeColor=#d79b00;rotation=90;" vertex="1" parent="nU2St9TEeWDOG-n0TkPk-387">
          <mxGeometry x="360" y="40" width="80" height="80" as="geometry" />
        </mxCell>
        <mxCell id="nU2St9TEeWDOG-n0TkPk-331" value="" style="ellipse;whiteSpace=wrap;html=1;aspect=fixed;fillColor=#ffe6cc;strokeColor=#d79b00;rotation=90;" vertex="1" parent="nU2St9TEeWDOG-n0TkPk-387">
          <mxGeometry x="360" y="120" width="80" height="80" as="geometry" />
        </mxCell>
        <mxCell id="nU2St9TEeWDOG-n0TkPk-332" value="" style="ellipse;whiteSpace=wrap;html=1;aspect=fixed;fillColor=#ffe6cc;strokeColor=#d79b00;rotation=90;" vertex="1" parent="nU2St9TEeWDOG-n0TkPk-387">
          <mxGeometry x="360" y="200" width="80" height="80" as="geometry" />
        </mxCell>
        <mxCell id="nU2St9TEeWDOG-n0TkPk-333" value="" style="ellipse;whiteSpace=wrap;html=1;aspect=fixed;fillColor=#ffe6cc;strokeColor=#d79b00;rotation=90;" vertex="1" parent="nU2St9TEeWDOG-n0TkPk-387">
          <mxGeometry x="360" y="280" width="80" height="80" as="geometry" />
        </mxCell>
        <mxCell id="nU2St9TEeWDOG-n0TkPk-334" value="" style="ellipse;whiteSpace=wrap;html=1;aspect=fixed;fillColor=#ffe6cc;strokeColor=#d79b00;rotation=90;" vertex="1" parent="nU2St9TEeWDOG-n0TkPk-387">
          <mxGeometry x="360" y="360" width="80" height="80" as="geometry" />
        </mxCell>
        <mxCell id="nU2St9TEeWDOG-n0TkPk-335" value="" style="ellipse;whiteSpace=wrap;html=1;aspect=fixed;fillColor=#ffe6cc;strokeColor=#d79b00;rotation=90;" vertex="1" parent="nU2St9TEeWDOG-n0TkPk-387">
          <mxGeometry x="360" y="440" width="80" height="80" as="geometry" />
        </mxCell>
        <mxCell id="nU2St9TEeWDOG-n0TkPk-336" value="" style="ellipse;whiteSpace=wrap;html=1;aspect=fixed;fillColor=#ffe6cc;strokeColor=#d79b00;rotation=90;" vertex="1" parent="nU2St9TEeWDOG-n0TkPk-387">
          <mxGeometry x="360" y="520" width="80" height="80" as="geometry" />
        </mxCell>
        <mxCell id="nU2St9TEeWDOG-n0TkPk-337" value="" style="ellipse;whiteSpace=wrap;html=1;aspect=fixed;fillColor=#ffe6cc;strokeColor=#d79b00;rotation=90;" vertex="1" parent="nU2St9TEeWDOG-n0TkPk-387">
          <mxGeometry x="360" y="600" width="80" height="80" as="geometry" />
        </mxCell>
        <mxCell id="nU2St9TEeWDOG-n0TkPk-338" value="" style="ellipse;whiteSpace=wrap;html=1;aspect=fixed;fillColor=#ffe6cc;strokeColor=#d79b00;rotation=90;" vertex="1" parent="nU2St9TEeWDOG-n0TkPk-387">
          <mxGeometry x="360" y="680" width="80" height="80" as="geometry" />
        </mxCell>
        <mxCell id="nU2St9TEeWDOG-n0TkPk-339" value="" style="ellipse;whiteSpace=wrap;html=1;aspect=fixed;fillColor=#ffe6cc;strokeColor=#d79b00;rotation=90;" vertex="1" parent="nU2St9TEeWDOG-n0TkPk-387">
          <mxGeometry x="290" width="80" height="80" as="geometry" />
        </mxCell>
        <mxCell id="nU2St9TEeWDOG-n0TkPk-340" value="" style="ellipse;whiteSpace=wrap;html=1;aspect=fixed;fillColor=#ffe6cc;strokeColor=#d79b00;rotation=90;" vertex="1" parent="nU2St9TEeWDOG-n0TkPk-387">
          <mxGeometry x="290" y="80" width="80" height="80" as="geometry" />
        </mxCell>
        <mxCell id="nU2St9TEeWDOG-n0TkPk-341" value="" style="ellipse;whiteSpace=wrap;html=1;aspect=fixed;fillColor=#ffe6cc;strokeColor=#d79b00;rotation=90;" vertex="1" parent="nU2St9TEeWDOG-n0TkPk-387">
          <mxGeometry x="290" y="160" width="80" height="80" as="geometry" />
        </mxCell>
        <mxCell id="nU2St9TEeWDOG-n0TkPk-342" value="" style="ellipse;whiteSpace=wrap;html=1;aspect=fixed;fillColor=#ffe6cc;strokeColor=#d79b00;rotation=90;" vertex="1" parent="nU2St9TEeWDOG-n0TkPk-387">
          <mxGeometry x="290" y="240" width="80" height="80" as="geometry" />
        </mxCell>
        <mxCell id="nU2St9TEeWDOG-n0TkPk-343" value="" style="ellipse;whiteSpace=wrap;html=1;aspect=fixed;fillColor=#ffe6cc;strokeColor=#d79b00;rotation=90;" vertex="1" parent="nU2St9TEeWDOG-n0TkPk-387">
          <mxGeometry x="290" y="320" width="80" height="80" as="geometry" />
        </mxCell>
        <mxCell id="nU2St9TEeWDOG-n0TkPk-344" value="" style="ellipse;whiteSpace=wrap;html=1;aspect=fixed;fillColor=#ffe6cc;strokeColor=#d79b00;rotation=90;" vertex="1" parent="nU2St9TEeWDOG-n0TkPk-387">
          <mxGeometry x="290" y="400" width="80" height="80" as="geometry" />
        </mxCell>
        <mxCell id="nU2St9TEeWDOG-n0TkPk-345" value="" style="ellipse;whiteSpace=wrap;html=1;aspect=fixed;fillColor=#ffe6cc;strokeColor=#d79b00;rotation=90;" vertex="1" parent="nU2St9TEeWDOG-n0TkPk-387">
          <mxGeometry x="290" y="480" width="80" height="80" as="geometry" />
        </mxCell>
        <mxCell id="nU2St9TEeWDOG-n0TkPk-346" value="" style="ellipse;whiteSpace=wrap;html=1;aspect=fixed;fillColor=#ffe6cc;strokeColor=#d79b00;rotation=90;" vertex="1" parent="nU2St9TEeWDOG-n0TkPk-387">
          <mxGeometry x="290" y="560" width="80" height="80" as="geometry" />
        </mxCell>
        <mxCell id="nU2St9TEeWDOG-n0TkPk-347" value="" style="ellipse;whiteSpace=wrap;html=1;aspect=fixed;fillColor=#ffe6cc;strokeColor=#d79b00;rotation=90;" vertex="1" parent="nU2St9TEeWDOG-n0TkPk-387">
          <mxGeometry x="290" y="640" width="80" height="80" as="geometry" />
        </mxCell>
        <mxCell id="nU2St9TEeWDOG-n0TkPk-348" value="" style="ellipse;whiteSpace=wrap;html=1;aspect=fixed;fillColor=#ffe6cc;strokeColor=#d79b00;rotation=90;" vertex="1" parent="nU2St9TEeWDOG-n0TkPk-387">
          <mxGeometry x="290" y="720" width="80" height="80" as="geometry" />
        </mxCell>
        <mxCell id="nU2St9TEeWDOG-n0TkPk-349" value="" style="ellipse;whiteSpace=wrap;html=1;aspect=fixed;fillColor=#ffe6cc;strokeColor=#d79b00;rotation=90;" vertex="1" parent="nU2St9TEeWDOG-n0TkPk-387">
          <mxGeometry x="220" y="40" width="80" height="80" as="geometry" />
        </mxCell>
        <mxCell id="nU2St9TEeWDOG-n0TkPk-350" value="" style="ellipse;whiteSpace=wrap;html=1;aspect=fixed;fillColor=#ffe6cc;strokeColor=#d79b00;rotation=90;" vertex="1" parent="nU2St9TEeWDOG-n0TkPk-387">
          <mxGeometry x="220" y="120" width="80" height="80" as="geometry" />
        </mxCell>
        <mxCell id="nU2St9TEeWDOG-n0TkPk-351" value="" style="ellipse;whiteSpace=wrap;html=1;aspect=fixed;fillColor=#ffe6cc;strokeColor=#d79b00;rotation=90;" vertex="1" parent="nU2St9TEeWDOG-n0TkPk-387">
          <mxGeometry x="220" y="200" width="80" height="80" as="geometry" />
        </mxCell>
        <mxCell id="nU2St9TEeWDOG-n0TkPk-352" value="" style="ellipse;whiteSpace=wrap;html=1;aspect=fixed;fillColor=#ffe6cc;strokeColor=#d79b00;rotation=90;" vertex="1" parent="nU2St9TEeWDOG-n0TkPk-387">
          <mxGeometry x="220" y="280" width="80" height="80" as="geometry" />
        </mxCell>
        <mxCell id="nU2St9TEeWDOG-n0TkPk-353" value="" style="ellipse;whiteSpace=wrap;html=1;aspect=fixed;fillColor=#ffe6cc;strokeColor=#d79b00;rotation=90;" vertex="1" parent="nU2St9TEeWDOG-n0TkPk-387">
          <mxGeometry x="220" y="360" width="80" height="80" as="geometry" />
        </mxCell>
        <mxCell id="nU2St9TEeWDOG-n0TkPk-354" value="" style="ellipse;whiteSpace=wrap;html=1;aspect=fixed;fillColor=#ffe6cc;strokeColor=#d79b00;rotation=90;" vertex="1" parent="nU2St9TEeWDOG-n0TkPk-387">
          <mxGeometry x="220" y="440" width="80" height="80" as="geometry" />
        </mxCell>
        <mxCell id="nU2St9TEeWDOG-n0TkPk-355" value="" style="ellipse;whiteSpace=wrap;html=1;aspect=fixed;fillColor=#ffe6cc;strokeColor=#d79b00;rotation=90;" vertex="1" parent="nU2St9TEeWDOG-n0TkPk-387">
          <mxGeometry x="220" y="520" width="80" height="80" as="geometry" />
        </mxCell>
        <mxCell id="nU2St9TEeWDOG-n0TkPk-356" value="" style="ellipse;whiteSpace=wrap;html=1;aspect=fixed;fillColor=#ffe6cc;strokeColor=#d79b00;rotation=90;" vertex="1" parent="nU2St9TEeWDOG-n0TkPk-387">
          <mxGeometry x="220" y="600" width="80" height="80" as="geometry" />
        </mxCell>
        <mxCell id="nU2St9TEeWDOG-n0TkPk-357" value="" style="ellipse;whiteSpace=wrap;html=1;aspect=fixed;fillColor=#ffe6cc;strokeColor=#d79b00;rotation=90;" vertex="1" parent="nU2St9TEeWDOG-n0TkPk-387">
          <mxGeometry x="220" y="680" width="80" height="80" as="geometry" />
        </mxCell>
        <mxCell id="nU2St9TEeWDOG-n0TkPk-358" value="" style="ellipse;whiteSpace=wrap;html=1;aspect=fixed;fillColor=#ffe6cc;strokeColor=#d79b00;rotation=90;" vertex="1" parent="nU2St9TEeWDOG-n0TkPk-387">
          <mxGeometry x="150" width="80" height="80" as="geometry" />
        </mxCell>
        <mxCell id="nU2St9TEeWDOG-n0TkPk-359" value="" style="ellipse;whiteSpace=wrap;html=1;aspect=fixed;fillColor=#ffe6cc;strokeColor=#d79b00;rotation=90;" vertex="1" parent="nU2St9TEeWDOG-n0TkPk-387">
          <mxGeometry x="150" y="80" width="80" height="80" as="geometry" />
        </mxCell>
        <mxCell id="nU2St9TEeWDOG-n0TkPk-360" value="" style="ellipse;whiteSpace=wrap;html=1;aspect=fixed;fillColor=#ffe6cc;strokeColor=#d79b00;rotation=90;" vertex="1" parent="nU2St9TEeWDOG-n0TkPk-387">
          <mxGeometry x="150" y="160" width="80" height="80" as="geometry" />
        </mxCell>
        <mxCell id="nU2St9TEeWDOG-n0TkPk-361" value="" style="ellipse;whiteSpace=wrap;html=1;aspect=fixed;fillColor=#ffe6cc;strokeColor=#d79b00;rotation=90;" vertex="1" parent="nU2St9TEeWDOG-n0TkPk-387">
          <mxGeometry x="150" y="240" width="80" height="80" as="geometry" />
        </mxCell>
        <mxCell id="nU2St9TEeWDOG-n0TkPk-362" value="" style="ellipse;whiteSpace=wrap;html=1;aspect=fixed;fillColor=#ffe6cc;strokeColor=#d79b00;rotation=90;" vertex="1" parent="nU2St9TEeWDOG-n0TkPk-387">
          <mxGeometry x="150" y="320" width="80" height="80" as="geometry" />
        </mxCell>
        <mxCell id="nU2St9TEeWDOG-n0TkPk-363" value="" style="ellipse;whiteSpace=wrap;html=1;aspect=fixed;fillColor=#ffe6cc;strokeColor=#d79b00;rotation=90;" vertex="1" parent="nU2St9TEeWDOG-n0TkPk-387">
          <mxGeometry x="150" y="400" width="80" height="80" as="geometry" />
        </mxCell>
        <mxCell id="nU2St9TEeWDOG-n0TkPk-364" value="" style="ellipse;whiteSpace=wrap;html=1;aspect=fixed;fillColor=#ffe6cc;strokeColor=#d79b00;rotation=90;" vertex="1" parent="nU2St9TEeWDOG-n0TkPk-387">
          <mxGeometry x="150" y="480" width="80" height="80" as="geometry" />
        </mxCell>
        <mxCell id="nU2St9TEeWDOG-n0TkPk-365" value="" style="ellipse;whiteSpace=wrap;html=1;aspect=fixed;fillColor=#ffe6cc;strokeColor=#d79b00;rotation=90;" vertex="1" parent="nU2St9TEeWDOG-n0TkPk-387">
          <mxGeometry x="150" y="560" width="80" height="80" as="geometry" />
        </mxCell>
        <mxCell id="nU2St9TEeWDOG-n0TkPk-366" value="" style="ellipse;whiteSpace=wrap;html=1;aspect=fixed;fillColor=#ffe6cc;strokeColor=#d79b00;rotation=90;" vertex="1" parent="nU2St9TEeWDOG-n0TkPk-387">
          <mxGeometry x="150" y="640" width="80" height="80" as="geometry" />
        </mxCell>
        <mxCell id="nU2St9TEeWDOG-n0TkPk-367" value="" style="ellipse;whiteSpace=wrap;html=1;aspect=fixed;fillColor=#ffe6cc;strokeColor=#d79b00;rotation=90;" vertex="1" parent="nU2St9TEeWDOG-n0TkPk-387">
          <mxGeometry x="150" y="720" width="80" height="80" as="geometry" />
        </mxCell>
        <mxCell id="nU2St9TEeWDOG-n0TkPk-368" value="" style="ellipse;whiteSpace=wrap;html=1;aspect=fixed;fillColor=#ffe6cc;strokeColor=#d79b00;rotation=90;" vertex="1" parent="nU2St9TEeWDOG-n0TkPk-387">
          <mxGeometry x="80" y="40" width="80" height="80" as="geometry" />
        </mxCell>
        <mxCell id="nU2St9TEeWDOG-n0TkPk-369" value="" style="ellipse;whiteSpace=wrap;html=1;aspect=fixed;fillColor=#ffe6cc;strokeColor=#d79b00;rotation=90;" vertex="1" parent="nU2St9TEeWDOG-n0TkPk-387">
          <mxGeometry x="80" y="120" width="80" height="80" as="geometry" />
        </mxCell>
        <mxCell id="nU2St9TEeWDOG-n0TkPk-370" value="" style="ellipse;whiteSpace=wrap;html=1;aspect=fixed;fillColor=#ffe6cc;strokeColor=#d79b00;rotation=90;" vertex="1" parent="nU2St9TEeWDOG-n0TkPk-387">
          <mxGeometry x="80" y="200" width="80" height="80" as="geometry" />
        </mxCell>
        <mxCell id="nU2St9TEeWDOG-n0TkPk-371" value="" style="ellipse;whiteSpace=wrap;html=1;aspect=fixed;fillColor=#ffe6cc;strokeColor=#d79b00;rotation=90;" vertex="1" parent="nU2St9TEeWDOG-n0TkPk-387">
          <mxGeometry x="80" y="280" width="80" height="80" as="geometry" />
        </mxCell>
        <mxCell id="nU2St9TEeWDOG-n0TkPk-372" value="" style="ellipse;whiteSpace=wrap;html=1;aspect=fixed;fillColor=#ffe6cc;strokeColor=#d79b00;rotation=90;" vertex="1" parent="nU2St9TEeWDOG-n0TkPk-387">
          <mxGeometry x="80" y="360" width="80" height="80" as="geometry" />
        </mxCell>
        <mxCell id="nU2St9TEeWDOG-n0TkPk-373" value="" style="ellipse;whiteSpace=wrap;html=1;aspect=fixed;fillColor=#ffe6cc;strokeColor=#d79b00;rotation=90;" vertex="1" parent="nU2St9TEeWDOG-n0TkPk-387">
          <mxGeometry x="80" y="440" width="80" height="80" as="geometry" />
        </mxCell>
        <mxCell id="nU2St9TEeWDOG-n0TkPk-374" value="" style="ellipse;whiteSpace=wrap;html=1;aspect=fixed;fillColor=#ffe6cc;strokeColor=#d79b00;rotation=90;" vertex="1" parent="nU2St9TEeWDOG-n0TkPk-387">
          <mxGeometry x="80" y="520" width="80" height="80" as="geometry" />
        </mxCell>
        <mxCell id="nU2St9TEeWDOG-n0TkPk-375" value="" style="ellipse;whiteSpace=wrap;html=1;aspect=fixed;fillColor=#ffe6cc;strokeColor=#d79b00;rotation=90;" vertex="1" parent="nU2St9TEeWDOG-n0TkPk-387">
          <mxGeometry x="80" y="600" width="80" height="80" as="geometry" />
        </mxCell>
        <mxCell id="nU2St9TEeWDOG-n0TkPk-376" value="" style="ellipse;whiteSpace=wrap;html=1;aspect=fixed;fillColor=#ffe6cc;strokeColor=#d79b00;rotation=90;" vertex="1" parent="nU2St9TEeWDOG-n0TkPk-387">
          <mxGeometry x="80" y="680" width="80" height="80" as="geometry" />
        </mxCell>
        <mxCell id="nU2St9TEeWDOG-n0TkPk-377" value="" style="ellipse;whiteSpace=wrap;html=1;aspect=fixed;fillColor=#ffe6cc;strokeColor=#d79b00;rotation=90;" vertex="1" parent="nU2St9TEeWDOG-n0TkPk-387">
          <mxGeometry x="10" width="80" height="80" as="geometry" />
        </mxCell>
        <mxCell id="nU2St9TEeWDOG-n0TkPk-378" value="" style="ellipse;whiteSpace=wrap;html=1;aspect=fixed;fillColor=#ffe6cc;strokeColor=#d79b00;rotation=90;" vertex="1" parent="nU2St9TEeWDOG-n0TkPk-387">
          <mxGeometry x="10" y="80" width="80" height="80" as="geometry" />
        </mxCell>
        <mxCell id="nU2St9TEeWDOG-n0TkPk-379" value="" style="ellipse;whiteSpace=wrap;html=1;aspect=fixed;fillColor=#ffe6cc;strokeColor=#d79b00;rotation=90;" vertex="1" parent="nU2St9TEeWDOG-n0TkPk-387">
          <mxGeometry x="10" y="160" width="80" height="80" as="geometry" />
        </mxCell>
        <mxCell id="nU2St9TEeWDOG-n0TkPk-380" value="" style="ellipse;whiteSpace=wrap;html=1;aspect=fixed;fillColor=#ffe6cc;strokeColor=#d79b00;rotation=90;" vertex="1" parent="nU2St9TEeWDOG-n0TkPk-387">
          <mxGeometry x="10" y="240" width="80" height="80" as="geometry" />
        </mxCell>
        <mxCell id="nU2St9TEeWDOG-n0TkPk-381" value="" style="ellipse;whiteSpace=wrap;html=1;aspect=fixed;fillColor=#ffe6cc;strokeColor=#d79b00;rotation=90;" vertex="1" parent="nU2St9TEeWDOG-n0TkPk-387">
          <mxGeometry x="10" y="320" width="80" height="80" as="geometry" />
        </mxCell>
        <mxCell id="nU2St9TEeWDOG-n0TkPk-382" value="" style="ellipse;whiteSpace=wrap;html=1;aspect=fixed;fillColor=#ffe6cc;strokeColor=#d79b00;rotation=90;" vertex="1" parent="nU2St9TEeWDOG-n0TkPk-387">
          <mxGeometry x="10" y="400" width="80" height="80" as="geometry" />
        </mxCell>
        <mxCell id="nU2St9TEeWDOG-n0TkPk-383" value="" style="ellipse;whiteSpace=wrap;html=1;aspect=fixed;fillColor=#ffe6cc;strokeColor=#d79b00;rotation=90;" vertex="1" parent="nU2St9TEeWDOG-n0TkPk-387">
          <mxGeometry x="10" y="480" width="80" height="80" as="geometry" />
        </mxCell>
        <mxCell id="nU2St9TEeWDOG-n0TkPk-384" value="" style="ellipse;whiteSpace=wrap;html=1;aspect=fixed;fillColor=#ffe6cc;strokeColor=#d79b00;rotation=90;" vertex="1" parent="nU2St9TEeWDOG-n0TkPk-387">
          <mxGeometry x="10" y="560" width="80" height="80" as="geometry" />
        </mxCell>
        <mxCell id="nU2St9TEeWDOG-n0TkPk-385" value="" style="ellipse;whiteSpace=wrap;html=1;aspect=fixed;fillColor=#ffe6cc;strokeColor=#d79b00;rotation=90;" vertex="1" parent="nU2St9TEeWDOG-n0TkPk-387">
          <mxGeometry x="10" y="640" width="80" height="80" as="geometry" />
        </mxCell>
        <mxCell id="nU2St9TEeWDOG-n0TkPk-386" value="" style="ellipse;whiteSpace=wrap;html=1;aspect=fixed;fillColor=#ffe6cc;strokeColor=#d79b00;rotation=90;" vertex="1" parent="nU2St9TEeWDOG-n0TkPk-387">
          <mxGeometry x="10" y="720" width="80" height="80" as="geometry" />
        </mxCell>
        <mxCell id="nU2St9TEeWDOG-n0TkPk-495" value="Grid" style="text;html=1;strokeColor=none;fillColor=none;align=center;verticalAlign=middle;rounded=0;fontSize=100;" vertex="1" parent="1">
          <mxGeometry x="170" y="90" width="420" height="180" as="geometry" />
        </mxCell>
        <mxCell id="nU2St9TEeWDOG-n0TkPk-496" value="Horizontal&lt;br&gt;quincux" style="text;html=1;strokeColor=none;fillColor=none;align=center;verticalAlign=middle;rounded=0;fontSize=100;" vertex="1" parent="1">
          <mxGeometry x="1000" y="30" width="420" height="180" as="geometry" />
        </mxCell>
        <mxCell id="nU2St9TEeWDOG-n0TkPk-497" value="Vertical&lt;br&gt;quincux" style="text;html=1;strokeColor=none;fillColor=none;align=center;verticalAlign=middle;rounded=0;fontSize=100;" vertex="1" parent="1">
          <mxGeometry x="1890" y="40" width="420" height="180" as="geometry" />
        </mxCell>
      </root>
    </mxGraphModel>
  </diagram>
</mxfile>
